<svg width="367" height="375" viewBox="0 0 367 375" fill="none" xmlns="http://www.w3.org/2000/svg">
<path fill-rule="evenodd" clip-rule="evenodd" d="M3.37378 6.1748C4.95297 6.1748 6.23315 4.86664 6.23315 3.25293C6.23315 1.63922 4.95297 0.331055 3.37378 0.331055C1.79459 0.331055 0.514404 1.63922 0.514404 3.25293C0.514404 4.86664 1.79459 6.1748 3.37378 6.1748ZM3.37378 251.612C4.95297 251.612 6.23315 250.304 6.23315 248.69C6.23315 247.077 4.95297 245.769 3.37378 245.769C1.79459 245.769 0.514404 247.077 0.514404 248.69C0.514404 250.304 1.79459 251.612 3.37378 251.612ZM246.421 3.25293C246.421 4.86664 245.14 6.1748 243.561 6.1748C241.982 6.1748 240.702 4.86664 240.702 3.25293C240.702 1.63922 241.982 0.331055 243.561 0.331055C245.14 0.331055 246.421 1.63922 246.421 3.25293ZM243.561 251.612C245.14 251.612 246.421 250.304 246.421 248.69C246.421 247.077 245.14 245.769 243.561 245.769C241.982 245.769 240.702 247.077 240.702 248.69C240.702 250.304 241.982 251.612 243.561 251.612ZM6.23315 125.972C6.23315 127.585 4.95297 128.894 3.37378 128.894C1.79459 128.894 0.514404 127.585 0.514404 125.972C0.514404 124.358 1.79459 123.05 3.37378 123.05C4.95297 123.05 6.23315 124.358 6.23315 125.972ZM3.37378 374.331C4.95297 374.331 6.23315 373.023 6.23315 371.409C6.23315 369.795 4.95297 368.487 3.37378 368.487C1.79459 368.487 0.514404 369.795 0.514404 371.409C0.514404 373.023 1.79459 374.331 3.37378 374.331ZM246.421 125.972C246.421 127.585 245.14 128.894 243.561 128.894C241.982 128.894 240.702 127.585 240.702 125.972C240.702 124.358 241.982 123.05 243.561 123.05C245.14 123.05 246.421 124.358 246.421 125.972ZM243.561 374.331C245.14 374.331 246.421 373.023 246.421 371.409C246.421 369.795 245.14 368.487 243.561 368.487C241.982 368.487 240.702 369.795 240.702 371.409C240.702 373.023 241.982 374.331 243.561 374.331ZM126.327 3.25293C126.327 4.86664 125.047 6.1748 123.468 6.1748C121.888 6.1748 120.608 4.86664 120.608 3.25293C120.608 1.63922 121.888 0.331055 123.468 0.331055C125.047 0.331055 126.327 1.63922 126.327 3.25293ZM123.468 251.612C125.047 251.612 126.327 250.304 126.327 248.69C126.327 247.077 125.047 245.769 123.468 245.769C121.888 245.769 120.608 247.077 120.608 248.69C120.608 250.304 121.888 251.612 123.468 251.612ZM366.514 3.25293C366.514 4.86664 365.234 6.1748 363.655 6.1748C362.076 6.1748 360.796 4.86664 360.796 3.25293C360.796 1.63922 362.076 0.331055 363.655 0.331055C365.234 0.331055 366.514 1.63922 366.514 3.25293ZM363.655 251.612C365.234 251.612 366.514 250.304 366.514 248.69C366.514 247.077 365.234 245.769 363.655 245.769C362.076 245.769 360.796 247.077 360.796 248.69C360.796 250.304 362.076 251.612 363.655 251.612ZM126.327 125.972C126.327 127.585 125.047 128.894 123.468 128.894C121.888 128.894 120.608 127.585 120.608 125.972C120.608 124.358 121.888 123.05 123.468 123.05C125.047 123.05 126.327 124.358 126.327 125.972ZM123.468 374.331C125.047 374.331 126.327 373.023 126.327 371.409C126.327 369.795 125.047 368.487 123.468 368.487C121.888 368.487 120.608 369.795 120.608 371.409C120.608 373.023 121.888 374.331 123.468 374.331ZM366.514 125.972C366.514 127.585 365.234 128.894 363.655 128.894C362.076 128.894 360.796 127.585 360.796 125.972C360.796 124.358 362.076 123.05 363.655 123.05C365.234 123.05 366.514 124.358 366.514 125.972ZM363.655 374.331C365.234 374.331 366.514 373.023 366.514 371.409C366.514 369.795 365.234 368.487 363.655 368.487C362.076 368.487 360.796 369.795 360.796 371.409C360.796 373.023 362.076 374.331 363.655 374.331Z" fill="white"/>
</svg>
