<svg width="197" height="46" viewBox="0 0 197 46" fill="none" xmlns="http://www.w3.org/2000/svg">
<path fill-rule="evenodd" clip-rule="evenodd" d="M8.09825 38.7803C8.12961 36.856 6.47004 35.2686 4.3915 35.2348C2.31296 35.2009 0.602544 36.7334 0.571185 38.6576C0.539826 40.5819 2.1994 42.1693 4.27794 42.2032C6.35648 42.2371 8.06689 40.7046 8.09825 38.7803ZM45.7336 39.3936C45.7649 37.4693 44.1054 35.8819 42.0268 35.8481C39.9483 35.8142 38.2379 37.3467 38.2065 39.271C38.1752 41.1952 39.8347 42.7826 41.9133 42.8165C43.9918 42.8504 45.7022 41.3179 45.7336 39.3936ZM79.6622 36.4614C81.7407 36.4953 83.4003 38.0827 83.3689 40.0069C83.3375 41.9312 81.6271 43.4637 79.5486 43.4298C77.4701 43.396 75.8105 41.8086 75.8418 39.8843C75.8732 37.96 77.5836 36.4275 79.6622 36.4614ZM121.004 40.6203C121.036 38.696 119.376 37.1086 117.297 37.0747C115.219 37.0409 113.509 38.5733 113.477 40.4976C113.446 42.4219 115.105 44.0093 117.184 44.0432C119.262 44.077 120.973 42.5445 121.004 40.6203ZM154.933 37.688C157.011 37.7219 158.671 39.3093 158.64 41.2336C158.608 43.1579 156.898 44.6903 154.819 44.6565C152.741 44.6226 151.081 43.0352 151.112 41.1109C151.144 39.1867 152.854 37.6542 154.933 37.688ZM196.275 41.8469C196.306 39.9226 194.647 38.3352 192.568 38.3014C190.49 38.2675 188.779 39.8 188.748 41.7243C188.716 43.6485 190.376 45.2359 192.455 45.2698C194.533 45.3037 196.244 43.7712 196.275 41.8469ZM4.9593 0.392616C7.03785 0.426489 8.69741 2.01388 8.66606 3.93816C8.6347 5.86244 6.92428 7.39491 4.84574 7.36104C2.7672 7.32717 1.10763 5.73978 1.13899 3.8155C1.17035 1.89122 2.88076 0.358743 4.9593 0.392616ZM46.3014 4.55149C46.3327 2.6272 44.6732 1.03981 42.5946 1.00594C40.5161 0.972068 38.8057 2.50454 38.7743 4.42882C38.743 6.3531 40.4025 7.94049 42.4811 7.97436C44.5596 8.00824 46.27 6.47577 46.3014 4.55149ZM80.23 1.61927C82.3085 1.65314 83.9681 3.24053 83.9367 5.16481C83.9054 7.08909 82.1949 8.62156 80.1164 8.58769C78.0379 8.55382 76.3783 6.96643 76.4096 5.04215C76.441 3.11786 78.1514 1.58539 80.23 1.61927ZM121.572 5.77814C121.603 3.85385 119.944 2.26646 117.865 2.23259C115.787 2.19872 114.076 3.73119 114.045 5.65547C114.014 7.57975 115.673 9.16714 117.752 9.20101C119.83 9.23489 121.541 7.70241 121.572 5.77814ZM155.501 2.84591C157.579 2.87979 159.239 4.46718 159.207 6.39146C159.176 8.31574 157.466 9.84821 155.387 9.81434C153.309 9.78047 151.649 8.19307 151.68 6.2688C151.712 4.34451 153.422 2.81204 155.501 2.84591ZM196.843 7.00479C196.874 5.0805 195.214 3.49311 193.136 3.45924C191.057 3.42537 189.347 4.95784 189.316 6.88212C189.284 8.8064 190.944 10.3938 193.022 10.4277C195.101 10.4615 196.811 8.92906 196.843 7.00479Z" fill="#5F5858"/>
</svg>
