<svg width="241" height="93" viewBox="0 0 241 93" fill="none" xmlns="http://www.w3.org/2000/svg">
<path d="M40.8769 3.88517C41.1076 3.74482 41.1844 3.44759 41.0534 3.21391C41.6615 2.90152 42.3453 2.65869 43.0755 2.49664C43.127 2.76193 43.381 2.93922 43.649 2.8942C44.1307 2.81333 44.6305 2.76859 45.1395 2.76353L47.3398 2.74168C47.6159 2.73893 47.8376 2.51286 47.8348 2.23673L51.2356 2.20295C51.2383 2.47908 51.4644 2.7007 51.7405 2.69796L56.1412 2.65424C56.4173 2.6515 56.6389 2.42543 56.6362 2.1493L60.0369 2.11552C60.0397 2.39165 60.2657 2.61327 60.5419 2.61053L64.9425 2.56681C65.2187 2.56407 65.4403 2.338 65.4376 2.06187L68.8383 2.02809C68.841 2.30422 69.0671 2.52584 69.3432 2.5231L73.7439 2.47938C74.02 2.47664 74.2417 2.25057 74.2389 1.97444L77.6397 1.94066C77.6424 2.21678 77.8685 2.43841 78.1446 2.43566L80.3449 2.41381C81.3404 2.40392 82.2554 2.53703 83.0616 2.77576C83.3216 2.85275 83.5945 2.70848 83.6786 2.45258C85.4729 3.10412 86.7117 4.27785 87.0685 5.59299C86.8152 5.63961 86.6359 5.87365 86.662 6.13446C86.7332 6.84464 86.4959 7.61937 85.8001 8.37755L84.4228 9.87839C84.2361 10.0818 84.2497 10.3981 84.4532 10.5848L82.3748 12.8497C82.1713 12.663 81.855 12.6766 81.6683 12.8801L78.9138 15.8818C78.7271 16.0852 78.7406 16.4015 78.9441 16.5882L76.8657 18.8531C76.6622 18.6664 76.346 18.68 76.1592 18.8834L73.4047 21.8851C73.218 22.0886 73.2316 22.4049 73.435 22.5916L71.3566 24.8565C71.1532 24.6698 70.8369 24.6833 70.6502 24.8868L67.8956 27.8885C67.7089 28.0919 67.7225 28.4082 67.926 28.5949L65.8476 30.8598C65.6441 30.6731 65.3278 30.6867 65.1411 30.8902L62.3866 33.8918C62.1999 34.0953 62.2134 34.4116 62.4169 34.5983L60.3385 36.8632C60.135 36.6765 59.8187 36.6901 59.632 36.8935L56.8775 39.8952C56.6908 40.0987 56.7044 40.4149 56.9078 40.6017L54.8294 42.8665C54.626 42.6798 54.3097 42.6934 54.1229 42.8969L52.7457 44.3977C52.3929 44.7821 52.1188 45.1966 51.9292 45.631C51.8187 45.884 51.9343 46.1788 52.1873 46.2893C52.1989 46.2943 52.2105 46.2989 52.2222 46.303C52.0798 46.8394 52.0852 47.3881 52.2383 47.9216C52.2267 47.926 52.2151 47.9308 52.2037 47.936C51.9529 48.0515 51.8432 48.3485 51.9586 48.5993C52.1569 49.0299 52.4392 49.4388 52.7995 49.8161L54.2063 51.2893C54.397 51.489 54.7135 51.4963 54.9132 51.3056L57.0362 53.5288C56.8365 53.7195 56.8292 54.036 57.0199 54.2357L59.8336 57.182C60.0243 57.3818 60.3408 57.389 60.5405 57.1983L62.6635 59.4215C62.4638 59.6122 62.4565 59.9287 62.6472 60.1284L65.4608 63.0748C65.6515 63.2745 65.968 63.2818 66.1677 63.0911L68.2907 65.3142C68.091 65.5049 68.0837 65.8214 68.2744 66.0212L71.0881 68.9675C71.2788 69.1672 71.5953 69.1745 71.795 68.9838L73.918 71.207C73.7183 71.3977 73.711 71.7142 73.9017 71.9139L76.7153 74.8603C76.906 75.06 77.2225 75.0673 77.4222 74.8765L79.5452 77.0997C79.3455 77.2904 79.3382 77.6069 79.5289 77.8066L82.3425 80.753C82.5333 80.9527 82.8498 80.96 83.0495 80.7693L85.1725 82.9924C84.9728 83.1831 84.9655 83.4996 85.1562 83.6994L86.563 85.1725C87.2737 85.9167 87.5263 86.6866 87.4693 87.3981C87.4484 87.6593 87.6323 87.8898 87.8864 87.9314C87.5558 89.2533 86.3407 90.4514 84.5596 91.1385C84.4705 90.8843 84.1947 90.7455 83.9363 90.8276C83.135 91.0823 82.2228 91.2336 81.2274 91.2435L79.027 91.2653C78.7509 91.2681 78.5293 91.4941 78.532 91.7703L75.1313 91.8041C75.1286 91.5279 74.9025 91.3063 74.6264 91.309L70.2257 91.3528C69.9495 91.3555 69.7279 91.5816 69.7307 91.8577L66.3299 91.8915C66.3272 91.6154 66.1011 91.3937 65.825 91.3965L61.4243 91.4402C61.1482 91.4429 60.9266 91.669 60.9293 91.9451L57.5286 91.9789C57.5258 91.7028 57.2998 91.4812 57.0236 91.4839L52.6229 91.5276C52.3468 91.5304 52.1252 91.7564 52.1279 92.0326L48.7272 92.0664C48.7245 91.7902 48.4984 91.5686 48.2223 91.5713L46.0219 91.5932C45.5129 91.5983 45.0124 91.5635 44.5292 91.4922C44.2603 91.4525 44.0098 91.6348 43.9636 91.901C43.2304 91.7535 42.5419 91.5243 41.9277 91.2241C42.054 90.9878 41.9714 90.6922 41.7379 90.5565C41.2983 90.3008 40.9175 90.0062 40.607 89.6811L39.2412 88.2509C39.0505 88.0511 38.734 88.0439 38.5343 88.2346L36.4932 86.0972C36.693 85.9065 36.7002 85.59 36.5095 85.3903L33.7779 82.5298C33.5872 82.3301 33.2707 82.3228 33.071 82.5135L31.0299 80.3762C31.2296 80.1855 31.2369 79.869 31.0462 79.6693L28.3146 76.8087C28.1239 76.609 27.8074 76.6017 27.6077 76.7924L25.5666 74.6551C25.7663 74.4644 25.7736 74.1479 25.5829 73.9482L22.8513 71.0877C22.6606 70.888 22.3441 70.8807 22.1444 71.0714L20.1033 68.9341C20.303 68.7434 20.3103 68.4269 20.1196 68.2272L17.388 65.3666C17.1973 65.1669 16.8808 65.1596 16.6811 65.3503L14.64 63.213C14.8397 63.0223 14.847 62.7058 14.6563 62.5061L11.9247 59.6456C11.734 59.4459 11.4175 59.4386 11.2177 59.6293L9.17672 57.492C9.37643 57.3012 9.38373 56.9847 9.19301 56.785L6.46137 53.9245C6.27065 53.7248 5.95416 53.7175 5.75445 53.9082L3.71341 51.7709C3.91313 51.5802 3.92042 51.2637 3.72971 51.064L2.36389 49.6337C2.07259 49.3287 1.85593 49.0103 1.70814 48.6893C1.59792 48.4499 1.32241 48.3391 1.07945 48.4299C0.926377 47.8964 0.920925 47.3476 1.06337 46.8112C1.30809 46.8971 1.58134 46.7808 1.68678 46.5393C1.82817 46.2154 2.03846 45.8928 2.32364 45.582L3.66078 44.1249C3.84749 43.9215 3.83391 43.6052 3.63044 43.4185L5.62861 41.241C5.83206 41.4277 6.14836 41.4142 6.33507 41.2107L9.00935 38.2965C9.19606 38.093 9.18248 37.7767 8.97901 37.59L10.9772 35.4126C11.1806 35.5993 11.4969 35.5857 11.6836 35.3822L14.3579 32.468C14.5446 32.2645 14.5311 31.9483 14.3276 31.7615L16.3258 29.5841C16.5292 29.7708 16.8455 29.7572 17.0322 29.5538L19.7065 26.6395C19.8932 26.4361 19.8796 26.1198 19.6762 25.9331L21.6743 23.7556C21.8778 23.9423 22.1941 23.9288 22.3808 23.7253L25.0551 20.8111C25.2418 20.6076 25.2282 20.2913 25.0247 20.1046L27.0229 17.9272C27.2263 18.1139 27.5426 18.1003 27.7293 17.8968L30.4036 14.9826C30.5903 14.7792 30.5768 14.4629 30.3733 14.2762L32.3715 12.0987C32.5749 12.2854 32.8912 12.2718 33.0779 12.0684L35.7522 9.15415C35.9389 8.9507 35.9253 8.6344 35.7219 8.4477L37.72 6.27026C37.9235 6.45696 38.2398 6.44338 38.4265 6.23992L39.7636 4.7828C40.0676 4.45158 40.4425 4.14949 40.8769 3.88517ZM117.136 3.12763C117.366 2.98728 117.443 2.69004 117.312 2.45637C117.92 2.14397 118.604 1.90115 119.334 1.7391C119.386 2.00439 119.64 2.18167 119.908 2.13666C120.389 2.05578 120.889 2.01105 121.398 2.00599L123.598 1.98413C123.875 1.98139 124.096 1.75532 124.093 1.47919L127.494 1.44541C127.497 1.72154 127.723 1.94316 127.999 1.94042L132.4 1.8967C132.676 1.89396 132.898 1.66789 132.895 1.39176L136.296 1.35798C136.298 1.6341 136.524 1.85573 136.801 1.85298L141.201 1.80927C141.477 1.80653 141.699 1.58046 141.696 1.30433L145.097 1.27054C145.1 1.54667 145.326 1.7683 145.602 1.76555L150.003 1.72184C150.279 1.71909 150.5 1.49302 150.498 1.21689L153.898 1.18311C153.901 1.45924 154.127 1.68086 154.403 1.67812L156.604 1.65626C157.599 1.64637 158.514 1.77948 159.32 2.01822C159.58 2.09521 159.853 1.95094 159.937 1.69504C161.732 2.34658 162.97 3.52031 163.327 4.83545C163.074 4.88208 162.895 5.11611 162.921 5.37692C162.992 6.08709 162.755 6.86182 162.059 7.62L160.681 9.12084C160.495 9.3243 160.508 9.64059 160.712 9.8273L158.633 12.0922C158.43 11.9055 158.114 11.9191 157.927 12.1225L155.172 15.1242C154.986 15.3277 154.999 15.644 155.203 15.8307L153.124 18.0956C152.921 17.9088 152.605 17.9224 152.418 18.1259L149.663 21.1276C149.477 21.331 149.49 21.6473 149.694 21.834L147.615 24.0989C147.412 23.9122 147.096 23.9258 146.909 24.1292L144.154 27.1309C143.968 27.3344 143.981 27.6507 144.185 27.8374L142.106 30.1023C141.903 29.9156 141.586 29.9292 141.4 30.1326L138.645 33.1343C138.459 33.3378 138.472 33.654 138.676 33.8407L136.597 36.1056C136.394 35.9189 136.077 35.9325 135.891 36.136L133.136 39.1377C132.949 39.3411 132.963 39.6574 133.166 39.8441L131.088 42.109C130.885 41.9223 130.568 41.9359 130.382 42.1393L129.004 43.6402C128.652 44.0246 128.377 44.439 128.188 44.8734C128.077 45.1265 128.193 45.4212 128.446 45.5317C128.458 45.5368 128.469 45.5413 128.481 45.5454C128.338 46.0819 128.344 46.6306 128.497 47.1641C128.485 47.1684 128.474 47.1732 128.462 47.1785C128.212 47.294 128.102 47.591 128.217 47.8418C128.416 48.2724 128.698 48.6813 129.058 49.0586L130.465 50.5318C130.656 50.7315 130.972 50.7388 131.172 50.5481L133.295 52.7712C133.095 52.9619 133.088 53.2784 133.279 53.4781L136.092 56.4245C136.283 56.6242 136.599 56.6315 136.799 56.4408L138.922 58.6639C138.722 58.8547 138.715 59.1712 138.906 59.3709L141.719 62.3172C141.91 62.5169 142.227 62.5242 142.426 62.3335L144.549 64.5567C144.35 64.7474 144.342 65.0639 144.533 65.2636L147.347 68.21C147.537 68.4097 147.854 68.417 148.054 68.2263L150.177 70.4494C149.977 70.6401 149.97 70.9566 150.16 71.1563L152.974 74.1027C153.165 74.3024 153.481 74.3097 153.681 74.119L155.804 76.3422C155.604 76.5329 155.597 76.8494 155.788 77.0491L158.601 79.9954C158.792 80.1952 159.108 80.2024 159.308 80.0117L161.431 82.2349C161.231 82.4256 161.224 82.7421 161.415 82.9418L162.822 84.415C163.532 85.1592 163.785 85.9291 163.728 86.6405C163.707 86.9018 163.891 87.1322 164.145 87.1738C163.814 88.4958 162.599 89.6939 160.818 90.3809C160.729 90.1268 160.453 89.9879 160.195 90.0701C159.394 90.3248 158.481 90.476 157.486 90.4859L155.286 90.5078C155.01 90.5105 154.788 90.7366 154.791 91.0127L151.39 91.0465C151.387 90.7704 151.161 90.5488 150.885 90.5515L146.484 90.5952C146.208 90.598 145.987 90.824 145.989 91.1002L142.589 91.1339C142.586 90.8578 142.36 90.6362 142.084 90.6389L137.683 90.6827C137.407 90.6854 137.185 90.9115 137.188 91.1876L133.787 91.2214C133.784 90.9452 133.558 90.7236 133.282 90.7264L128.882 90.7701C128.605 90.7728 128.384 90.9989 128.387 91.275L124.986 91.3088C124.983 91.0327 124.757 90.8111 124.481 90.8138L122.281 90.8357C121.772 90.8407 121.271 90.8059 120.788 90.7346C120.519 90.6949 120.268 90.8772 120.222 91.1435C119.489 90.996 118.801 90.7668 118.186 90.4665C118.313 90.2303 118.23 89.9347 117.997 89.7989C117.557 89.5433 117.176 89.2487 116.866 88.9236L115.5 87.4933C115.309 87.2936 114.993 87.2863 114.793 87.477L112.752 85.3397C112.952 85.149 112.959 84.8325 112.768 84.6328L110.037 81.7723C109.846 81.5725 109.529 81.5652 109.33 81.756L107.289 79.6186C107.488 79.4279 107.496 79.1114 107.305 78.9117L104.573 76.0512C104.383 75.8515 104.066 75.8442 103.866 76.0349L101.825 73.8976C102.025 73.7069 102.032 73.3904 101.842 73.1907L99.1099 70.3301C98.9192 70.1304 98.6027 70.1231 98.403 70.3138L96.362 68.1765C96.5617 67.9858 96.569 67.6693 96.3783 67.4696L93.6466 64.6091C93.4559 64.4094 93.1394 64.4021 92.9397 64.5928L90.8987 62.4555C91.0984 62.2648 91.1057 61.9483 90.915 61.7485L88.1833 58.888C87.9926 58.6883 87.6761 58.681 87.4764 58.8717L85.4354 56.7344C85.6351 56.5437 85.6424 56.2272 85.4517 56.0275L82.72 53.167C82.5293 52.9672 82.2128 52.96 82.0131 53.1507L79.9721 51.0133C80.1718 50.8226 80.1791 50.5061 79.9884 50.3064L78.6225 48.8762C78.3312 48.5711 78.1146 48.2528 77.9668 47.9318C77.8566 47.6924 77.5811 47.5815 77.3381 47.6723C77.185 47.1388 77.1796 46.5901 77.322 46.0536C77.5667 46.1396 77.84 46.0233 77.9454 45.7817C78.0868 45.4579 78.2971 45.1353 78.5823 44.8245L79.9194 43.3674C80.1061 43.1639 80.0926 42.8476 79.8891 42.6609L81.8873 40.4835C82.0907 40.6702 82.407 40.6566 82.5937 40.4532L85.268 37.5389C85.4547 37.3355 85.4411 37.0192 85.2377 36.8325L87.2358 34.655C87.4393 34.8417 87.7556 34.8281 87.9423 34.6247L90.6166 31.7105C90.8033 31.507 90.7897 31.1907 90.5862 31.004L92.5844 28.8266C92.7879 29.0133 93.1042 28.9997 93.2909 28.7962L95.9652 25.882C96.1518 25.6785 96.1383 25.3622 95.9348 25.1755L97.933 22.9981C98.1364 23.1848 98.4527 23.1712 98.6394 22.9678L101.314 20.0535C101.5 19.8501 101.487 19.5338 101.283 19.3471L103.282 17.1696C103.485 17.3563 103.801 17.3428 103.988 17.1393L106.662 14.2251C106.849 14.0216 106.835 13.7053 106.632 13.5186L108.63 11.3412C108.834 11.5279 109.15 11.5143 109.337 11.3108L112.011 8.39661C112.198 8.19315 112.184 7.87686 111.981 7.69015L113.979 5.51271C114.182 5.69941 114.498 5.68583 114.685 5.48238L116.022 4.02526C116.326 3.69404 116.701 3.39195 117.136 3.12763ZM193.394 2.37008C193.625 2.22973 193.702 1.9325 193.571 1.69882C194.179 1.38643 194.863 1.14361 195.593 0.981553C195.644 1.24685 195.898 1.42413 196.166 1.37912C196.648 1.29824 197.148 1.2535 197.657 1.24845L199.857 1.22659C200.133 1.22385 200.355 0.997775 200.352 0.721645L203.753 0.687863C203.756 0.963993 203.982 1.18562 204.258 1.18287L208.658 1.13916C208.935 1.13641 209.156 0.910344 209.153 0.634214L212.554 0.600431C212.557 0.876561 212.783 1.09818 213.059 1.09544L217.46 1.05173C217.736 1.04898 217.958 0.822912 217.955 0.546782L221.356 0.512999C221.358 0.78913 221.584 1.01075 221.861 1.00801L226.261 0.964294C226.537 0.961551 226.759 0.73548 226.756 0.45935L230.157 0.425568C230.16 0.701698 230.386 0.923321 230.662 0.920578L232.862 0.89872C233.858 0.888831 234.773 1.02194 235.579 1.26068C235.839 1.33766 236.112 1.1934 236.196 0.937494C237.99 1.58904 239.229 2.76278 239.586 4.0779C239.333 4.12453 239.153 4.35856 239.179 4.61938C239.25 5.32955 239.013 6.10428 238.317 6.86246L236.94 8.3633C236.753 8.56676 236.767 8.88305 236.97 9.06976L234.892 11.3346C234.689 11.1479 234.372 11.1615 234.186 11.365L231.431 14.3667C231.244 14.5701 231.258 14.8864 231.461 15.0731L229.383 17.338C229.18 17.1513 228.863 17.1649 228.677 17.3683L225.922 20.37C225.735 20.5735 225.749 20.8898 225.952 21.0765L223.874 23.3414C223.67 23.1547 223.354 23.1682 223.167 23.3717L220.413 26.3734C220.226 26.5768 220.24 26.8931 220.443 27.0798L218.365 29.3447C218.161 29.158 217.845 29.1716 217.658 29.3751L214.904 32.3767C214.717 32.5802 214.731 32.8965 214.934 33.0832L212.856 35.3481C212.652 35.1614 212.336 35.175 212.149 35.3784L209.395 38.3801C209.208 38.5836 209.222 38.8999 209.425 39.0866L207.347 41.3515C207.143 41.1647 206.827 41.1783 206.64 41.3818L205.263 42.8826C204.91 43.267 204.636 43.6815 204.446 44.1159C204.336 44.369 204.452 44.6637 204.705 44.7742C204.716 44.7792 204.728 44.7838 204.74 44.7879C204.597 45.3243 204.603 45.8731 204.756 46.4066C204.744 46.4109 204.732 46.4157 204.721 46.421C204.47 46.5365 204.36 46.8334 204.476 47.0843C204.674 47.5148 204.956 47.9237 205.317 48.301L206.724 49.7742C206.914 49.9739 207.231 49.9812 207.431 49.7905L209.554 52.0137C209.354 52.2044 209.347 52.5209 209.537 52.7206L212.351 55.667C212.542 55.8667 212.858 55.874 213.058 55.6833L215.181 57.9064C214.981 58.0971 214.974 58.4136 215.164 58.6133L217.978 61.5597C218.169 61.7594 218.485 61.7667 218.685 61.576L220.808 63.7991C220.608 63.9899 220.601 64.3064 220.792 64.5061L223.605 67.4524C223.796 67.6521 224.113 67.6594 224.312 67.4687L226.435 69.6919C226.236 69.8826 226.228 70.1991 226.419 70.3988L229.233 73.3452C229.423 73.5449 229.74 73.5522 229.94 73.3615L232.063 75.5846C231.863 75.7753 231.856 76.0918 232.046 76.2915L234.86 79.2379C235.051 79.4376 235.367 79.4449 235.567 79.2542L237.69 81.4773C237.49 81.6681 237.483 81.9846 237.673 82.1843L239.08 83.6575C239.791 84.4017 240.044 85.1715 239.987 85.883C239.966 86.1442 240.15 86.3747 240.404 86.4163C240.073 87.7382 238.858 88.9363 237.077 89.6234C236.988 89.3692 236.712 89.2304 236.454 89.3125C235.652 89.5672 234.74 89.7185 233.745 89.7284L231.544 89.7502C231.268 89.753 231.047 89.9791 231.049 90.2552L227.649 90.289C227.646 90.0128 227.42 89.7912 227.144 89.794L222.743 89.8377C222.467 89.8404 222.245 90.0665 222.248 90.3426L218.847 90.3764C218.844 90.1003 218.618 89.8786 218.342 89.8814L213.942 89.9251C213.665 89.9278 213.444 90.1539 213.447 90.43L210.046 90.4638C210.043 90.1877 209.817 89.9661 209.541 89.9688L205.14 90.0125C204.864 90.0153 204.642 90.2413 204.645 90.5175L201.244 90.5513C201.242 90.2751 201.016 90.0535 200.74 90.0563L198.539 90.0781C198.03 90.0832 197.53 90.0484 197.046 89.9771C196.778 89.9374 196.527 90.1197 196.481 90.3859C195.748 90.2384 195.059 90.0092 194.445 89.709C194.571 89.4728 194.489 89.1771 194.255 89.0414C193.816 88.7857 193.435 88.4911 193.124 88.166L191.758 86.7358C191.568 86.5361 191.251 86.5288 191.052 86.7195L189.011 84.5822C189.21 84.3914 189.218 84.0749 189.027 83.8752L186.295 81.0147C186.104 80.815 185.788 80.8077 185.588 80.9984L183.547 78.8611C183.747 78.6704 183.754 78.3539 183.564 78.1542L180.832 75.2937C180.641 75.0939 180.325 75.0866 180.125 75.2774L178.084 73.14C178.284 72.9493 178.291 72.6328 178.1 72.4331L175.369 69.5726C175.178 69.3729 174.861 69.3656 174.662 69.5563L172.621 67.419C172.82 67.2283 172.828 66.9118 172.637 66.7121L169.905 63.8515C169.715 63.6518 169.398 63.6445 169.198 63.8352L167.157 61.6979C167.357 61.5072 167.364 61.1907 167.174 60.991L164.442 58.1305C164.251 57.9308 163.935 57.9235 163.735 58.1142L161.694 55.9769C161.894 55.7862 161.901 55.4696 161.71 55.2699L158.979 52.4094C158.788 52.2097 158.471 52.2024 158.272 52.3931L156.231 50.2558C156.43 50.0651 156.438 49.7486 156.247 49.5489L154.881 48.1186C154.59 47.8136 154.373 47.4952 154.225 47.1742C154.115 46.9348 153.84 46.824 153.597 46.9148C153.444 46.3813 153.438 45.8325 153.581 45.2961C153.825 45.382 154.099 45.2657 154.204 45.0242C154.345 44.7003 154.556 44.3777 154.841 44.067L156.178 42.6098C156.365 42.4064 156.351 42.0901 156.148 41.9034L158.146 39.7259C158.349 39.9126 158.666 39.8991 158.852 39.6956L161.527 36.7814C161.713 36.5779 161.7 36.2616 161.496 36.0749L163.494 33.8975C163.698 34.0842 164.014 34.0706 164.201 33.8671L166.875 30.9529C167.062 30.7495 167.048 30.4332 166.845 30.2465L168.843 28.069C169.047 28.2557 169.363 28.2421 169.55 28.0387L172.224 25.1245C172.41 24.921 172.397 24.6047 172.193 24.418L174.192 22.2406C174.395 22.4273 174.711 22.4137 174.898 22.2102L177.572 19.296C177.759 19.0925 177.745 18.7762 177.542 18.5895L179.54 16.4121C179.744 16.5988 180.06 16.5852 180.247 16.3818L182.921 13.4675C183.108 13.2641 183.094 12.9478 182.891 12.7611L184.889 10.5836C185.092 10.7703 185.409 10.7568 185.595 10.5533L188.27 7.63906C188.456 7.43561 188.443 7.11931 188.239 6.93261L190.237 4.75517C190.441 4.94187 190.757 4.92829 190.944 4.72483L192.281 3.26772C192.585 2.93649 192.96 2.63441 193.394 2.37008Z" stroke="white" stroke-linecap="round" stroke-dasharray="4 4"/>
</svg>
