<svg width="224" height="79" viewBox="0 0 224 79" fill="none" xmlns="http://www.w3.org/2000/svg">
<path d="M204.736 78.5021L148.912 77.8054L167.527 40.2207L149.856 2.18323L205.68 2.87989L223.35 40.9174L204.736 78.5021Z" fill="white"/>
<path fill-rule="evenodd" clip-rule="evenodd" d="M93.5604 39.2977L74.9459 76.8823L130.77 77.579L149.384 39.9943L131.713 1.95681L75.8896 1.26014L93.5604 39.2977ZM78.3262 2.37103L95.4921 39.3218L77.4094 75.8326L129.37 76.4811L147.452 39.9702L130.287 3.01949L78.3262 2.37103Z" fill="white"/>
<path d="M58.1995 72.8917L59.795 69.6701L3.97135 68.9734L2.37582 72.195L58.1995 72.8917Z" fill="white"/>
<path d="M60.8587 67.5224L62.4542 64.3009L6.63057 63.6042L5.03505 66.8257L60.8587 67.5224Z" fill="white"/>
<path d="M63.5179 62.1532L65.1134 58.9316L9.2898 58.235L7.69426 61.4565L63.5179 62.1532Z" fill="white"/>
<path d="M66.1771 56.7839L67.7727 53.5624L11.949 52.8657L10.3535 56.0873L66.1771 56.7839Z" fill="white"/>
<path d="M68.8364 51.4147L70.4319 48.1931L14.6082 47.4965L13.0127 50.718L68.8364 51.4147Z" fill="white"/>
<path d="M71.4956 46.0455L73.0911 42.8239L17.2675 42.1272L15.6719 45.3488L71.4956 46.0455Z" fill="white"/>
<path d="M74.9526 39.0654L74.1952 37.4353L18.3716 36.7386L19.1289 38.3688L18.3312 39.9795L74.1548 40.6762L74.9526 39.0654Z" fill="white"/>
<path d="M73.1855 35.2617L71.6708 32.0013L15.8472 31.3047L17.3619 34.565L73.1855 35.2617Z" fill="white"/>
<path d="M70.6611 29.8278L69.1465 26.5674L13.3228 25.8707L14.8374 29.1311L70.6611 29.8278Z" fill="white"/>
<path d="M68.1367 24.3938L66.622 21.1335L10.7984 20.4368L12.313 23.6972L68.1367 24.3938Z" fill="white"/>
<path d="M65.6123 18.9599L64.0976 15.6995L8.27399 15.0029L9.78864 18.2632L65.6123 18.9599Z" fill="white"/>
<path d="M63.0879 13.526L61.5732 10.2656L5.7496 9.56894L7.26423 12.8293L63.0879 13.526Z" fill="white"/>
<path d="M60.5635 8.09203L59.0488 4.83167L3.22519 4.135L4.73983 7.39536L60.5635 8.09203Z" fill="white"/>
<path d="M1.45811 0.331254L2.21545 1.96143L58.0391 2.6581L57.2818 1.02792L1.45811 0.331254Z" fill="white"/>
<path d="M57.1358 75.0394L1.31215 74.3427L0.514364 75.9535L56.338 76.6501L57.1358 75.0394Z" fill="white"/>
</svg>
