<svg width="50" height="39" viewBox="0 0 50 39" fill="none" xmlns="http://www.w3.org/2000/svg">
<path fill-rule="evenodd" clip-rule="evenodd" d="M35.948 38.0695C35.3988 37.5415 35.3203 36.5991 35.7728 35.9646L46.957 20.2819C47.3611 19.7153 47.3472 18.8895 46.9243 18.3368L35.2186 3.0394C34.745 2.42054 34.7917 1.47604 35.3228 0.929815C35.854 0.383586 36.6684 0.442468 37.142 1.06133L48.8477 16.3587C50.1165 18.0168 50.1582 20.4943 48.946 22.1941L37.7617 37.8768C37.3093 38.5113 36.4972 38.5976 35.948 38.0695ZM18.7718 38.3586C18.2226 37.8306 18.1441 36.8882 18.5966 36.2538L29.7808 20.5711C30.1849 20.0044 30.171 19.1786 29.7481 18.6259L18.0424 3.32853C17.5688 2.70967 17.6155 1.76517 18.1466 1.21894C18.6778 0.672711 19.4922 0.731594 19.9658 1.35046L31.6715 16.6478C32.9403 18.3059 32.982 20.7834 31.7697 22.4833L20.5855 38.166C20.133 38.8004 19.321 38.8867 18.7718 38.3586ZM1.42036 36.5429C0.967898 37.1773 1.04633 38.1197 1.59556 38.6478C2.14478 39.1758 2.95681 39.0895 3.40928 38.4551L14.5935 22.7724C15.8058 21.0726 15.7641 18.5951 14.4953 16.937L2.78957 1.63958C2.31601 1.02072 1.50153 0.961837 0.970391 1.50807C0.439249 2.0543 0.392574 2.99879 0.866138 3.61766L12.5719 18.915C12.9948 19.4677 13.0087 20.2936 12.6046 20.8602L1.42036 36.5429Z" fill="white"/>
</svg>
