<svg width="652" height="708" viewBox="0 0 652 708" fill="none" xmlns="http://www.w3.org/2000/svg">
<path d="M319.024 4.29736L322.075 1.72989L322.719 2.49505L323.613 1.74335L324.52 2.47938L325.15 1.70287L328.246 4.21563L327.616 4.99214L330.712 7.50491L331.343 6.72841L334.439 9.24117L333.809 10.0177L336.905 12.5304L337.536 11.7539L340.632 14.2667L340.002 15.0432L343.098 17.556L343.729 16.7795L346.825 19.2922L346.195 20.0687L349.291 22.5815L349.922 21.805L353.018 24.3178L352.388 25.0943L355.484 27.607L356.115 26.8305L359.211 29.3433L358.581 30.1198L361.677 32.6326L362.308 31.8561L365.404 34.3688L364.774 35.1453L367.87 37.6581L368.501 36.8816L371.597 39.3944L370.967 40.1709L374.063 42.6836L374.693 41.9071L377.79 44.4199L377.16 45.1964L380.256 47.7092L380.886 46.9327L383.983 49.4454L383.353 50.2219L386.449 52.7347L387.079 51.9582L390.176 54.471L389.546 55.2474L392.642 57.7602L393.272 56.9837L396.369 59.4965L395.739 60.273L398.835 62.7857L399.465 62.0092L402.562 64.522L401.932 65.2985L405.028 67.8113L405.658 67.0348L408.755 69.5475L408.125 70.324L411.221 72.8368L411.851 72.0603L414.948 74.5731L414.318 75.3496L417.414 77.8623L418.044 77.0858L421.141 79.5986L420.511 80.3751L423.607 82.8879L424.237 82.1114L427.334 84.6241L426.704 85.4006L429.8 87.9134L430.43 87.1369L433.527 89.6497L432.897 90.4262L435.993 92.9389L436.623 92.1624L439.72 94.6752L439.09 95.4517L442.186 97.9644L442.816 97.188L445.913 99.7007L445.283 100.477L448.379 102.99L449.009 102.213L452.106 104.726L451.476 105.503L454.572 108.016L455.202 107.239L458.299 109.752L457.669 110.528L460.765 113.041L461.395 112.265L464.492 114.777L463.862 115.554L466.958 118.067L467.588 117.29L470.685 119.803L470.055 120.579L473.151 123.092L473.781 122.316L476.878 124.828L476.248 125.605L479.344 128.118L479.974 127.341L483.071 129.854L482.441 130.63L485.537 133.143L486.167 132.367L489.264 134.879L488.634 135.656L491.73 138.169L492.36 137.392L495.457 139.905L494.827 140.681L497.923 143.194L498.553 142.418L501.65 144.931L501.02 145.707L504.116 148.22L504.746 147.443L507.843 149.956L507.213 150.733L510.309 153.245L510.939 152.469L514.036 154.982L513.406 155.758L516.502 158.271L517.132 157.494L520.229 160.007L519.599 160.784L522.695 163.296L523.325 162.52L526.422 165.033L525.791 165.809L528.888 168.322L529.518 167.545L532.615 170.058L531.984 170.835L535.081 173.347L535.711 172.571L538.808 175.084L538.177 175.86L541.274 178.373L541.904 177.596L545.001 180.109L544.37 180.886L547.467 183.398L548.097 182.622L551.193 185.135L550.563 185.911L553.66 188.424L554.29 187.648L557.387 190.16L556.756 190.937L559.853 193.45L560.483 192.673L563.58 195.186L562.949 195.962L566.046 198.475L566.676 197.699L569.773 200.211L569.142 200.988L572.239 203.501L572.869 202.724L575.966 205.237L575.335 206.013L578.432 208.526L579.062 207.75L582.158 210.262L581.528 211.039L584.625 213.552L585.255 212.775L588.352 215.288L587.721 216.064L590.818 218.577L591.448 217.801L594.544 220.314L593.914 221.09L597.011 223.603L597.641 222.826L600.738 225.339L600.107 226.116L603.204 228.628L603.834 227.852L606.93 230.365L606.3 231.141L609.397 233.654L610.027 232.877L613.123 235.39L612.493 236.167L615.59 238.679L616.22 237.903L619.316 240.416L618.686 241.192L621.783 243.705L622.413 242.928L625.509 245.441L624.879 246.218L627.976 248.73L628.606 247.954L631.702 250.467L631.072 251.243L634.169 253.756L634.799 252.98L637.895 255.492L637.265 256.269L640.362 258.782L640.992 258.005L644.088 260.518L643.458 261.294L646.555 263.807L647.185 263.031L650.281 265.543L649.651 266.32L650.692 267.164L650.337 268.45L651.301 268.716L650.243 272.547L649.279 272.281L648.221 276.112L649.185 276.378L648.128 280.21L647.164 279.944L646.106 283.775L647.07 284.041L646.012 287.872L645.048 287.606L643.99 291.437L644.954 291.704L643.897 295.535L642.933 295.269L641.875 299.1L642.839 299.366L641.781 303.197L640.817 302.931L639.76 306.763L640.723 307.029L639.666 310.86L638.702 310.594L637.644 314.425L638.608 314.691L637.55 318.523L636.586 318.256L635.529 322.088L636.493 322.354L635.435 326.185L634.471 325.919L633.413 329.75L634.377 330.016L633.319 333.848L632.355 333.582L631.298 337.413L632.262 337.679L631.204 341.51L630.24 341.244L629.182 345.075L630.146 345.342L629.089 349.173L628.125 348.907L627.067 352.738L628.031 353.004L626.973 356.835L626.009 356.569L624.951 360.401L625.915 360.667L624.858 364.498L623.894 364.232L622.836 368.063L623.8 368.329L622.742 372.161L621.778 371.894L620.721 375.726L621.685 375.992L620.627 379.823L619.663 379.557L618.605 383.388L619.569 383.654L618.511 387.486L617.547 387.22L616.49 391.051L617.454 391.317L616.396 395.148L615.432 394.882L614.374 398.713L615.338 398.98L614.28 402.811L613.316 402.545L612.259 406.376L613.223 406.642L612.165 410.473L611.201 410.207L610.143 414.039L611.107 414.305L610.05 418.136L609.086 417.87L608.028 421.701L608.992 421.967L607.934 425.799L606.97 425.532L605.912 429.364L606.876 429.63L605.819 433.461L604.855 433.195L603.797 437.026L604.761 437.292L603.703 441.124L602.739 440.858L601.682 444.689L602.646 444.955L601.588 448.786L600.624 448.52L599.566 452.351L600.53 452.618L599.472 456.449L598.508 456.183L597.451 460.014L598.415 460.28L597.357 464.111L596.393 463.845L595.335 467.677L596.299 467.943L595.241 471.774L594.278 471.508L593.22 475.339L594.184 475.605L593.126 479.437L592.162 479.171L591.104 483.002L592.068 483.268L591.011 487.099L590.047 486.833L588.989 490.664L589.953 490.931L588.895 494.762L587.931 494.496L586.873 498.327L587.837 498.593L586.78 502.424L585.816 502.158L584.758 505.99L585.722 506.256L584.664 510.087L583.7 509.821L582.643 513.652L583.606 513.918L582.549 517.75L581.585 517.484L580.527 521.315L581.491 521.581L580.433 525.412L579.469 525.146L578.412 528.977L579.376 529.244L578.318 533.075L577.354 532.809L576.296 536.64L577.26 536.906L576.202 540.737L575.238 540.471L574.181 544.303L575.145 544.569L574.087 548.4L573.123 548.134L572.065 551.965L573.029 552.231L571.971 556.063L571.008 555.797L569.95 559.628L570.914 559.894L569.856 563.725L568.892 563.459L567.834 567.29L568.798 567.557L567.741 571.388L566.777 571.122L565.719 574.953L566.683 575.219L565.625 579.05L564.661 578.784L563.603 582.616L564.567 582.882L563.51 586.713L562.546 586.447L561.488 590.278L562.452 590.544L561.394 594.376L560.43 594.109L559.373 597.941L560.337 598.207L559.279 602.038L558.315 601.772L557.257 605.603L558.221 605.869L557.163 609.701L556.199 609.435L555.142 613.266L556.106 613.532L555.048 617.363L554.084 617.097L553.026 620.929L553.99 621.195L552.932 625.026L551.969 624.76L550.911 628.591L551.875 628.857L550.817 632.689L549.853 632.422L548.795 636.254L549.759 636.52L548.702 640.351L547.738 640.085L546.68 643.916L547.644 644.182L546.586 648.014L545.622 647.748L544.564 651.579L545.528 651.845L544.471 655.676L543.507 655.41L542.449 659.241L543.413 659.508L542.355 663.339L541.391 663.073L540.334 666.904L541.297 667.17L540.24 671.001L539.276 670.735L538.218 674.567L539.182 674.833L538.124 678.664L537.16 678.398L536.103 682.229L537.067 682.495L536.009 686.327L535.045 686.061L533.987 689.892L534.951 690.158L533.893 693.989L532.929 693.723L531.872 697.554L532.836 697.821L531.778 701.652L530.814 701.386L530.486 702.574L529.227 702.585L529.236 703.585L525.208 703.621L525.199 702.621L521.172 702.657L521.181 703.657L517.153 703.693L517.144 702.693L513.117 702.729L513.125 703.729L509.098 703.765L509.089 702.765L505.062 702.8L505.07 703.8L501.043 703.836L501.034 702.836L497.007 702.872L497.015 703.872L492.988 703.908L492.979 702.908L488.951 702.944L488.96 703.944L484.933 703.98L484.924 702.98L480.896 703.016L480.905 704.015L476.878 704.051L476.869 703.051L472.841 703.087L472.85 704.087L468.823 704.123L468.814 703.123L464.786 703.159L464.795 704.159L460.768 704.195L460.759 703.195L456.731 703.231L456.74 704.23L452.713 704.266L452.704 703.266L448.676 703.302L448.685 704.302L444.658 704.338L444.649 703.338L440.621 703.374L440.63 704.374L436.603 704.41L436.594 703.41L432.566 703.446L432.575 704.446L428.548 704.481L428.539 703.481L424.511 703.517L424.52 704.517L420.493 704.553L420.484 703.553L416.456 703.589L416.465 704.589L412.437 704.625L412.429 703.625L408.401 703.661L408.41 704.661L404.382 704.696L404.374 703.696L400.346 703.732L400.355 704.732L396.327 704.768L396.319 703.768L392.291 703.804L392.3 704.804L388.272 704.84L388.263 703.84L384.236 703.876L384.245 704.876L380.217 704.911L380.208 703.911L376.181 703.947L376.19 704.947L372.162 704.983L372.153 703.983L368.126 704.019L368.135 705.019L364.107 705.055L364.098 704.055L360.071 704.091L360.08 705.091L356.052 705.126L356.043 704.126L352.016 704.162L352.025 705.162L347.997 705.198L347.988 704.198L343.961 704.234L343.97 705.234L339.942 705.27L339.933 704.27L335.906 704.306L335.915 705.306L331.887 705.341L331.878 704.341L327.851 704.377L327.86 705.377L323.832 705.413L323.823 704.413L319.796 704.449L319.805 705.449L315.777 705.485L315.768 704.485L311.741 704.521L311.749 705.521L307.722 705.556L307.713 704.556L303.686 704.592L303.694 705.592L299.667 705.628L299.658 704.628L295.631 704.664L295.639 705.664L291.612 705.7L291.603 704.7L287.575 704.736L287.584 705.736L283.557 705.771L283.548 704.772L279.52 704.807L279.529 705.807L275.502 705.843L275.493 704.843L271.465 704.879L271.474 705.879L267.447 705.915L267.438 704.915L263.41 704.951L263.419 705.951L259.392 705.987L259.383 704.987L255.355 705.022L255.364 706.022L251.337 706.058L251.328 705.058L247.3 705.094L247.309 706.094L243.282 706.13L243.273 705.13L239.245 705.166L239.254 706.166L235.227 706.202L235.218 705.202L231.19 705.237L231.199 706.237L227.172 706.273L227.163 705.273L223.135 705.309L223.144 706.309L219.117 706.345L219.108 705.345L215.08 705.381L215.089 706.381L211.062 706.417L211.053 705.417L207.025 705.452L207.034 706.452L203.007 706.488L202.998 705.488L198.97 705.524L198.979 706.524L194.952 706.56L194.943 705.56L190.915 705.596L190.924 706.596L186.896 706.632L186.888 705.632L182.86 705.667L182.869 706.667L178.841 706.703L178.833 705.703L174.805 705.739L174.814 706.739L170.786 706.775L170.778 705.775L166.75 705.811L166.759 706.811L162.731 706.847L162.722 705.847L158.695 705.882L158.704 706.882L154.676 706.918L154.667 705.918L150.64 705.954L150.649 706.954L146.621 706.99L146.612 705.99L142.585 706.026L142.594 707.026L138.566 707.062L138.557 706.062L134.53 706.097L134.539 707.097L130.511 707.133L130.502 706.133L129.243 706.145L128.894 704.962L127.935 705.245L126.809 701.433L127.768 701.15L126.642 697.338L125.683 697.621L124.557 693.809L125.516 693.526L124.391 689.714L123.432 689.997L122.306 686.186L123.265 685.902L122.139 682.09L121.18 682.374L120.054 678.562L121.013 678.279L119.888 674.467L118.929 674.75L117.803 670.938L118.762 670.655L117.636 666.843L116.677 667.126L115.551 663.314L116.511 663.031L115.385 659.219L114.426 659.503L113.3 655.691L114.259 655.407L113.133 651.596L112.174 651.879L111.049 648.067L112.008 647.784L110.882 643.972L109.923 644.255L108.797 640.443L109.756 640.16L108.63 636.348L107.671 636.631L106.546 632.82L107.505 632.536L106.379 628.724L105.42 629.008L104.294 625.196L105.253 624.913L104.127 621.101L103.168 621.384L102.043 617.572L103.002 617.289L101.876 613.477L100.917 613.76L99.7913 609.948L100.75 609.665L99.6246 605.853L98.6655 606.137L97.5398 602.325L98.4988 602.041L97.3731 598.23L96.4141 598.513L95.2883 594.701L96.2474 594.418L95.1216 590.606L94.1626 590.889L93.0369 587.077L93.9959 586.794L92.8702 582.982L91.9111 583.265L90.7854 579.454L91.7445 579.17L90.6187 575.358L89.6597 575.642L88.5339 571.83L89.493 571.547L88.3673 567.735L87.4082 568.018L86.2825 564.206L87.2415 563.923L86.1158 560.111L85.1568 560.394L84.031 556.582L84.9901 556.299L83.8643 552.487L82.9053 552.771L81.7796 548.959L82.7386 548.675L81.6129 544.864L80.6538 545.147L79.5281 541.335L80.4872 541.052L79.3614 537.24L78.4024 537.523L77.2766 533.711L78.2357 533.428L77.11 529.616L76.1509 529.899L75.0252 526.088L75.9842 525.804L74.8585 521.992L73.8995 522.276L72.7737 518.464L73.7328 518.181L72.607 514.369L71.648 514.652L70.5222 510.84L71.4813 510.557L70.3556 506.745L69.3965 507.028L68.2708 503.216L69.2298 502.933L68.1041 499.121L67.1451 499.404L66.0193 495.593L66.9784 495.309L65.8526 491.498L64.8936 491.781L63.7678 487.969L64.7269 487.686L63.6012 483.874L62.6421 484.157L61.5164 480.345L62.4754 480.062L61.3497 476.25L60.3906 476.533L59.2649 472.721L60.224 472.438L59.0982 468.626L58.1392 468.91L57.0134 465.098L57.9725 464.814L56.8468 461.003L55.8877 461.286L54.762 457.474L55.721 457.191L54.5953 453.379L53.6362 453.662L52.5105 449.85L53.4695 449.567L52.3438 445.755L51.3848 446.038L50.259 442.226L51.2181 441.943L50.0924 438.131L49.1333 438.415L48.0076 434.603L48.9666 434.319L47.8409 430.508L46.8818 430.791L45.7561 426.979L46.7151 426.696L45.5894 422.884L44.6304 423.167L43.5046 419.355L44.4637 419.072L43.3379 415.26L42.3789 415.543L41.2532 411.731L42.2122 411.448L41.0865 407.636L40.1274 407.92L39.0017 404.108L39.9607 403.824L38.835 400.013L37.8759 400.296L36.7502 396.484L37.7093 396.201L36.5835 392.389L35.6245 392.672L34.4987 388.86L35.4578 388.577L34.3321 384.765L33.373 385.048L32.2473 381.236L33.2063 380.953L32.0806 377.141L31.1216 377.425L29.9958 373.613L30.9549 373.33L29.8291 369.518L28.8701 369.801L27.7444 365.989L28.7034 365.706L27.5777 361.894L26.6186 362.177L25.4929 358.365L26.4519 358.082L25.3262 354.27L24.3672 354.553L23.2414 350.742L24.2005 350.458L23.0747 346.646L22.1157 346.93L20.99 343.118L21.949 342.835L20.8233 339.023L19.8642 339.306L18.7385 335.494L19.6975 335.211L18.5718 331.399L17.6128 331.682L16.487 327.87L17.4461 327.587L16.3203 323.775L15.3613 324.059L14.2356 320.247L15.1946 319.963L14.0689 316.152L13.1098 316.435L11.9841 312.623L12.9431 312.34L11.8174 308.528L10.8584 308.811L9.73263 304.999L10.6917 304.716L9.56595 300.904L8.60689 301.187L7.48116 297.375L8.44021 297.092L7.31448 293.28L6.35543 293.564L5.2297 289.752L6.18875 289.469L5.06301 285.657L4.10396 285.94L2.97822 282.128L3.93728 281.845L2.81155 278.033L1.8525 278.316L0.726758 274.504L1.68581 274.221L1.3082 272.942L2.33379 272.079L1.68996 271.314L4.74123 268.747L5.38507 269.512L8.43637 266.944L7.79253 266.179L10.8438 263.612L11.4876 264.377L14.5389 261.81L13.8951 261.044L16.9464 258.477L17.5902 259.242L20.6415 256.675L19.9977 255.909L23.049 253.342L23.6928 254.107L26.7441 251.54L26.1002 250.775L29.1515 248.207L29.7954 248.972L32.8467 246.405L32.2028 245.64L35.2541 243.072L35.8979 243.837L38.9492 241.27L38.3054 240.505L41.3567 237.937L42.0005 238.702L45.0518 236.135L44.408 235.37L47.4593 232.802L48.1031 233.567L51.1544 231L50.5105 230.235L53.5618 227.667L54.2057 228.432L57.257 225.865L56.6131 225.1L59.6644 222.532L60.3082 223.298L63.3595 220.73L62.7157 219.965L65.767 217.397L66.4108 218.163L69.4621 215.595L68.8183 214.83L71.8695 212.262L72.5134 213.028L75.5647 210.46L74.9209 209.695L77.9721 207.128L78.616 207.893L81.6672 205.325L81.0234 204.56L84.0747 201.993L84.7186 202.758L87.7698 200.19L87.126 199.425L90.1773 196.858L90.8211 197.623L93.8724 195.055L93.2286 194.29L96.2799 191.723L96.9237 192.488L99.975 189.92L99.3311 189.155L102.382 186.588L103.026 187.353L106.078 184.785L105.434 184.02L108.485 181.453L109.129 182.218L112.18 179.651L111.536 178.885L114.588 176.318L115.231 177.083L118.283 174.516L117.639 173.75L120.69 171.183L121.334 171.948L124.385 169.381L123.741 168.615L126.793 166.048L127.437 166.813L130.488 164.246L129.844 163.481L132.895 160.913L133.539 161.678L136.59 159.111L135.947 158.346L138.998 155.778L139.642 156.543L142.693 153.976L142.049 153.211L145.1 150.643L145.744 151.408L148.796 148.841L148.152 148.076L151.203 145.508L151.847 146.273L154.898 143.706L154.254 142.941L157.306 140.373L157.949 141.138L161.001 138.571L160.357 137.806L163.408 135.238L164.052 136.004L167.103 133.436L166.459 132.671L169.511 130.103L170.155 130.869L173.206 128.301L172.562 127.536L175.613 124.969L176.257 125.734L179.308 123.166L178.665 122.401L181.716 119.834L182.36 120.599L185.411 118.031L184.767 117.266L187.818 114.699L188.462 115.464L191.514 112.896L190.87 112.131L193.921 109.564L194.565 110.329L197.616 107.761L196.972 106.996L200.024 104.429L200.667 105.194L203.719 102.626L203.075 101.861L206.126 99.2938L206.77 100.059L209.821 97.4915L209.178 96.7264L212.229 94.1589L212.873 94.9241L215.924 92.3566L215.28 91.5914L218.331 89.024L218.975 89.7891L222.026 87.2217L221.383 86.4565L224.434 83.889L225.078 84.6542L228.129 82.0867L227.485 81.3216L230.537 78.7541L231.18 79.5192L234.232 76.9518L233.588 76.1866L236.639 73.6192L237.283 74.3843L240.334 71.8168L239.69 71.0517L242.742 68.4842L243.386 69.2494L246.437 66.6819L245.793 65.9167L248.844 63.3492L249.488 64.1144L252.539 61.5469L251.896 60.7818L254.947 58.2143L255.591 58.9795L258.642 56.412L257.998 55.6468L261.049 53.0794L261.693 53.8445L264.745 51.277L264.101 50.5119L267.152 47.9444L267.796 48.7096L270.847 46.1421L270.203 45.3769L273.255 42.8095L273.898 43.5746L276.95 41.0072L276.306 40.242L279.357 37.6745L280.001 38.4397L283.052 35.8722L282.409 35.107L285.46 32.5396L286.104 33.3047L289.155 30.7373L288.511 29.9721L291.562 27.4046L292.206 28.1698L295.258 25.6023L294.614 24.8371L297.665 22.2697L298.309 23.0348L301.36 20.4674L300.716 19.7022L303.768 17.1347L304.411 17.8999L307.463 15.3324L306.819 14.5673L309.87 11.9998L310.514 12.7649L313.565 10.1975L312.921 9.43231L315.973 6.86484L316.617 7.63L319.668 5.06253L319.024 4.29736Z" stroke="white" stroke-opacity="0.56" stroke-width="2" stroke-dasharray="4 4"/>
</svg>
