<svg width="241" height="93" viewBox="0 0 241 93" fill="none" xmlns="http://www.w3.org/2000/svg">
<path d="M199.315 90.698C199.082 90.8336 198.999 91.1292 199.125 91.3655C198.51 91.6653 197.822 91.894 197.088 92.041C197.042 91.7747 196.792 91.5922 196.523 91.6317C196.04 91.7026 195.539 91.7371 195.03 91.7317L192.83 91.7082C192.554 91.7053 192.328 91.9268 192.325 92.2029L188.924 92.1667C188.927 91.8905 188.706 91.6643 188.429 91.6614L184.029 91.6145C183.753 91.6116 183.526 91.833 183.523 92.1091L180.123 92.0729C180.126 91.7968 179.904 91.5706 179.628 91.5676L175.227 91.5208C174.951 91.5178 174.725 91.7393 174.722 92.0154L171.321 91.9792C171.324 91.7031 171.103 91.4768 170.827 91.4739L166.426 91.427C166.15 91.4241 165.924 91.6456 165.921 91.9217L162.52 91.8855C162.523 91.6093 162.302 91.3831 162.026 91.3802L159.825 91.3567C158.83 91.3461 157.918 91.1942 157.117 90.9389C156.858 90.8566 156.582 90.9952 156.493 91.2494C154.712 90.561 153.498 89.3621 153.169 88.0399C153.423 87.9984 153.607 87.7682 153.586 87.5069C153.53 86.7954 153.783 86.0257 154.494 85.282L155.902 83.8098C156.093 83.6102 156.086 83.2937 155.886 83.1029L158.011 80.8812C158.21 81.0721 158.527 81.065 158.717 80.8655L161.533 77.9211C161.724 77.7215 161.717 77.405 161.517 77.2142L163.642 74.9925C163.842 75.1834 164.158 75.1763 164.349 74.9768L167.165 72.0324C167.356 71.8328 167.348 71.5163 167.149 71.3255L169.273 69.1038C169.473 69.2947 169.79 69.2876 169.98 69.088L172.796 66.1437C172.987 65.9441 172.98 65.6276 172.78 65.4368L174.905 63.2151C175.105 63.406 175.421 63.3989 175.612 63.1993L178.428 60.255C178.618 60.0554 178.611 59.7389 178.412 59.5481L180.536 57.3264C180.736 57.5173 181.052 57.5102 181.243 57.3106L184.059 54.3663C184.25 54.1667 184.243 53.8502 184.043 53.6594L186.168 51.4377C186.367 51.6286 186.684 51.6215 186.875 51.4219L188.283 49.9498C188.643 49.5727 188.926 49.164 189.124 48.7336C189.24 48.4828 189.131 48.1858 188.88 48.0701C188.868 48.0648 188.857 48.06 188.845 48.0557C188.999 47.5223 189.005 46.9736 188.862 46.437C188.874 46.4329 188.886 46.4284 188.897 46.4233C189.151 46.313 189.266 46.0184 189.156 45.7652C188.967 45.3307 188.693 44.9161 188.34 44.5314L186.964 43.0296C186.778 42.826 186.461 42.8122 186.258 42.9987L184.181 40.7323C184.385 40.5458 184.398 40.2295 184.212 40.0259L181.459 37.0223C181.273 36.8187 180.957 36.8049 180.753 36.9914L178.676 34.725C178.88 34.5385 178.894 34.2222 178.707 34.0186L175.955 31.015C175.768 30.8114 175.452 30.7976 175.248 30.9841L173.171 28.7177C173.375 28.5312 173.389 28.2149 173.202 28.0113L170.45 25.0076C170.263 24.8041 169.947 24.7903 169.743 24.9768L167.667 22.7104C167.87 22.5239 167.884 22.2076 167.697 22.004L164.945 19.0003C164.759 18.7968 164.442 18.7829 164.239 18.9695L162.162 16.7031C162.365 16.5166 162.379 16.2003 162.193 15.9967L159.44 12.993C159.254 12.7895 158.937 12.7756 158.734 12.9622L156.657 10.6958C156.861 10.5093 156.875 10.193 156.688 9.98939L155.312 8.48756C154.617 7.72889 154.38 6.95398 154.451 6.24387C154.478 5.98307 154.299 5.74891 154.045 5.7021C154.403 4.38722 155.643 3.21437 157.438 2.56412C157.521 2.82008 157.794 2.96454 158.054 2.88774C158.861 2.64958 159.776 2.51713 160.771 2.52773L162.971 2.55116C163.248 2.5541 163.474 2.33265 163.477 2.05652L166.877 2.09273C166.875 2.36886 167.096 2.59509 167.372 2.59803L171.773 2.64489C172.049 2.64784 172.275 2.42638 172.278 2.15025L175.679 2.18646C175.676 2.46259 175.897 2.68882 176.173 2.69176L180.574 2.73863C180.85 2.74157 181.076 2.52011 181.079 2.24398L184.48 2.2802C184.477 2.55633 184.699 2.78255 184.975 2.78549L189.375 2.83236C189.652 2.8353 189.878 2.61384 189.881 2.33771L193.281 2.37393C193.278 2.65006 193.5 2.87628 193.776 2.87922L195.976 2.90266C196.485 2.90808 196.985 2.95317 197.467 3.0344C197.735 3.0796 197.989 2.9025 198.041 2.63725C198.771 2.79982 199.454 3.04313 200.062 3.35596C199.931 3.58955 200.008 3.88683 200.238 4.02734C200.672 4.29198 201.047 4.59434 201.351 4.92578L202.687 6.38385C202.873 6.58744 203.19 6.60125 203.393 6.41468L205.39 8.59356C205.186 8.78012 205.173 9.0964 205.359 9.29999L208.031 12.2161C208.218 12.4197 208.534 12.4335 208.738 12.247L210.734 14.4258C210.531 14.6124 210.517 14.9287 210.703 15.1323L213.376 18.0484C213.562 18.252 213.879 18.2658 214.082 18.0793L216.079 20.2581C215.875 20.4447 215.861 20.761 216.048 20.9646L218.72 23.8807C218.907 24.0843 219.223 24.0981 219.427 23.9116L221.423 26.0904C221.22 26.277 221.206 26.5933 221.392 26.7969L224.064 29.713C224.251 29.9166 224.567 29.9304 224.771 29.7438L226.768 31.9227C226.564 32.1093 226.55 32.4256 226.737 32.6291L229.409 35.5453C229.595 35.7489 229.912 35.7627 230.115 35.5761L232.112 37.755C231.908 37.9416 231.895 38.2578 232.081 38.4614L234.753 41.3776C234.94 41.5812 235.256 41.595 235.46 41.4084L237.456 43.5873C237.253 43.7739 237.239 44.0901 237.425 44.2937L238.762 45.7518C239.047 46.0628 239.257 46.3855 239.398 46.7095C239.503 46.9511 239.776 47.0676 240.021 46.9818C240.163 47.5184 240.157 48.0671 240.004 48.6005C239.761 48.5095 239.485 48.6202 239.375 48.8595C239.227 49.1804 239.01 49.4986 238.718 49.8034L237.352 51.2327C237.161 51.4323 237.168 51.7488 237.367 51.9397L235.325 54.0755C235.125 53.8847 234.809 53.8917 234.618 54.0913L231.884 56.9499C231.693 57.1494 231.7 57.4659 231.9 57.6568L229.857 59.7927C229.658 59.6018 229.341 59.6089 229.15 59.8084L226.417 62.667C226.226 62.8666 226.233 63.1831 226.433 63.3739L224.39 65.5098C224.19 65.3189 223.874 65.326 223.683 65.5256L220.949 68.3842C220.759 68.5837 220.766 68.9002 220.965 69.0911L218.923 71.227C218.723 71.0361 218.407 71.0432 218.216 71.2427L215.482 74.1013C215.291 74.3009 215.298 74.6174 215.498 74.8082L213.455 76.9441C213.256 76.7532 212.939 76.7603 212.748 76.9599L210.015 79.8185C209.824 80.018 209.831 80.3345 210.03 80.5254L207.988 82.6612C207.788 82.4704 207.472 82.4775 207.281 82.677L204.547 85.5356C204.356 85.7352 204.363 86.0517 204.563 86.2425L202.52 88.3784C202.321 88.1875 202.004 88.1946 201.814 88.3942L200.447 89.8235C200.136 90.1484 199.755 90.4427 199.315 90.698ZM123.057 89.8859C122.823 90.0214 122.741 90.317 122.867 90.5534C122.252 90.8532 121.564 91.0819 120.83 91.2289C120.784 90.9626 120.534 90.7801 120.265 90.8196C119.782 90.8905 119.281 90.925 118.772 90.9195L116.572 90.8961C116.296 90.8932 116.07 91.1146 116.067 91.3908L112.666 91.3545C112.669 91.0784 112.447 90.8522 112.171 90.8492L107.771 90.8024C107.495 90.7994 107.268 91.0209 107.265 91.297L103.865 91.2608C103.868 90.9847 103.646 90.7584 103.37 90.7555L98.9694 90.7086C98.6932 90.7057 98.467 90.9272 98.4641 91.2033L95.0634 91.1671C95.0663 90.8909 94.8448 90.6647 94.5687 90.6618L90.1681 90.6149C89.8919 90.612 89.6657 90.8334 89.6628 91.1096L86.2621 91.0733C86.265 90.7972 86.0435 90.571 85.7674 90.568L83.5671 90.5446C82.5717 90.534 81.6596 90.3821 80.8584 90.1268C80.6001 90.0445 80.3243 90.1831 80.235 90.4372C78.4544 89.7489 77.2401 88.5499 76.9104 87.2277C77.1646 87.1863 77.3487 86.956 77.3279 86.6947C77.2714 85.9832 77.5246 85.2136 78.2358 84.4699L79.6437 82.9977C79.8346 82.7981 79.8275 82.4816 79.6279 82.2908L81.7525 80.0691C81.9521 80.26 82.2686 80.2529 82.4594 80.0533L85.2752 77.109C85.466 76.9094 85.4589 76.5929 85.2594 76.4021L87.384 74.1804C87.5835 74.3713 87.9 74.3642 88.0909 74.1646L90.9066 71.2203C91.0975 71.0207 91.0904 70.7042 90.8908 70.5133L93.0154 68.2917C93.215 68.4826 93.5315 68.4755 93.7223 68.2759L96.5381 65.3316C96.7289 65.132 96.7219 64.8155 96.5223 64.6246L98.6469 62.403C98.8465 62.5939 99.163 62.5868 99.3538 62.3872L102.17 59.4429C102.36 59.2433 102.353 58.9268 102.154 58.7359L104.278 56.5143C104.478 56.7052 104.794 56.6981 104.985 56.4985L107.801 53.5542C107.992 53.3546 107.985 53.0381 107.785 52.8472L109.91 50.6256C110.109 50.8164 110.426 50.8094 110.617 50.6098L112.025 49.1376C112.385 48.7606 112.668 48.3519 112.866 47.9214C112.982 47.6707 112.872 47.3737 112.622 47.258C112.61 47.2527 112.599 47.2479 112.587 47.2436C112.741 46.7102 112.746 46.1614 112.604 45.6249C112.616 45.6208 112.628 45.6162 112.639 45.6112C112.892 45.5009 113.008 45.2063 112.898 44.9531C112.709 44.5185 112.435 44.1039 112.082 43.7193L110.706 42.2174C110.52 42.0138 110.203 42 110 42.1866L107.923 39.9202C108.126 39.7337 108.14 39.4174 107.954 39.2138L105.201 36.2101C105.015 36.0065 104.698 35.9927 104.495 36.1793L102.418 33.9129C102.622 33.7264 102.636 33.4101 102.449 33.2065L99.6966 30.2028C99.51 29.9992 99.1937 29.9854 98.9901 30.172L96.9133 27.9056C97.1169 27.719 97.1307 27.4028 96.9442 27.1992L94.1918 24.1955C94.0052 23.9919 93.6889 23.9781 93.4854 24.1647L91.4086 21.8983C91.6122 21.7117 91.626 21.3955 91.4394 21.1919L88.687 18.1882C88.5005 17.9846 88.1842 17.9708 87.9806 18.1574L85.9038 15.891C86.1074 15.7044 86.1212 15.3882 85.9346 15.1846L83.1823 12.1809C82.9957 11.9773 82.6794 11.9635 82.4758 12.1501L80.399 9.8837C80.6026 9.69713 80.6164 9.38086 80.4299 9.17726L79.0537 7.67544C78.3585 6.91676 78.1217 6.14187 78.1933 5.43174C78.2196 5.17094 78.0405 4.93678 77.7873 4.88997C78.145 3.5751 79.3846 2.40225 81.1794 1.75199C81.2633 2.00796 81.5361 2.15242 81.7961 2.07562C82.6025 1.83745 83.5177 1.705 84.5131 1.7156L86.7134 1.73904C86.9895 1.74198 87.2158 1.52052 87.2187 1.24439L90.6194 1.28061C90.6165 1.55674 90.8379 1.78296 91.1141 1.7859L95.5147 1.83277C95.7908 1.83571 96.0171 1.61425 96.02 1.33812L99.4207 1.37434C99.4178 1.65047 99.6392 1.87669 99.9154 1.87963L104.316 1.9265C104.592 1.92944 104.818 1.70798 104.821 1.43185L108.222 1.46807C108.219 1.7442 108.441 1.97042 108.717 1.97337L113.117 2.02023C113.393 2.02317 113.62 1.80171 113.623 1.52558L117.023 1.5618C117.02 1.83793 117.242 2.06416 117.518 2.0671L119.718 2.09053C120.227 2.09595 120.727 2.14105 121.209 2.22228C121.477 2.26748 121.731 2.09038 121.783 1.82512C122.513 1.9877 123.196 2.23101 123.804 2.54384C123.673 2.77742 123.749 3.07471 123.98 3.21522C124.414 3.47986 124.789 3.78221 125.093 4.11365L126.429 5.57173C126.615 5.77532 126.932 5.78912 127.135 5.60256L129.132 7.78143C128.928 7.96799 128.914 8.28428 129.101 8.48787L131.773 11.404C131.96 11.6076 132.276 11.6214 132.48 11.4348L134.476 13.6137C134.273 13.8003 134.259 14.1166 134.445 14.3202L137.118 17.2363C137.304 17.4399 137.62 17.4537 137.824 17.2671L139.821 19.446C139.617 19.6326 139.603 19.9489 139.79 20.1525L142.462 23.0686C142.649 23.2722 142.965 23.286 143.168 23.0994L145.165 25.2783C144.961 25.4649 144.948 25.7811 145.134 25.9847L147.806 28.9009C147.993 29.1045 148.309 29.1183 148.513 28.9317L150.509 31.1106C150.306 31.2972 150.292 31.6134 150.479 31.817L153.151 34.7332C153.337 34.9368 153.654 34.9506 153.857 34.764L155.854 36.9429C155.65 37.1294 155.636 37.4457 155.823 37.6493L158.495 40.5655C158.682 40.7691 158.998 40.7829 159.202 40.5963L161.198 42.7752C160.995 42.9617 160.981 43.278 161.167 43.4816L162.503 44.9397C162.788 45.2506 162.998 45.5734 163.14 45.8974C163.245 46.139 163.518 46.2555 163.763 46.1697C163.905 46.7062 163.899 47.255 163.746 47.7884C163.503 47.6974 163.227 47.8081 163.117 48.0474C162.969 48.3683 162.752 48.6865 162.46 48.9913L161.093 50.4206C160.903 50.6202 160.91 50.9367 161.109 51.1275L159.067 53.2634C158.867 53.0725 158.551 53.0796 158.36 53.2792L155.626 56.1377C155.435 56.3373 155.442 56.6538 155.642 56.8447L153.599 58.9805C153.4 58.7897 153.083 58.7967 152.892 58.9963L150.159 61.8549C149.968 62.0545 149.975 62.371 150.174 62.5618L148.132 64.6977C147.932 64.5068 147.616 64.5139 147.425 64.7135L144.691 67.572C144.5 67.7716 144.508 68.0881 144.707 68.279L142.665 70.4148C142.465 70.224 142.148 70.231 141.958 70.4306L139.224 73.2892C139.033 73.4888 139.04 73.8053 139.24 73.9961L137.197 76.132C136.998 75.9411 136.681 75.9482 136.49 76.1478L133.757 79.0063C133.566 79.2059 133.573 79.5224 133.772 79.7133L131.73 81.8491C131.53 81.6583 131.214 81.6653 131.023 81.8649L128.289 84.7235C128.098 84.9231 128.105 85.2396 128.305 85.4304L126.262 87.5663C126.063 87.3754 125.746 87.3825 125.555 87.5821L124.189 89.0113C123.878 89.3362 123.497 89.6305 123.057 89.8859ZM46.7989 89.0737C46.5654 89.2093 46.4826 89.5049 46.6087 89.7412C45.9943 90.041 45.3056 90.2697 44.5723 90.4167C44.5263 90.1504 44.276 89.968 44.007 90.0074C43.5238 90.0784 43.0232 90.1128 42.5142 90.1074L40.3139 90.084C40.0378 90.081 39.8115 90.3025 39.8086 90.5786L36.4079 90.5424C36.4108 90.2663 36.1894 90.0401 35.9132 90.0371L31.5126 89.9902C31.2365 89.9873 31.0102 90.2088 31.0073 90.4849L27.6066 90.4487C27.6095 90.1726 27.3881 89.9463 27.1119 89.9434L22.7113 89.8965C22.4352 89.8936 22.2089 90.115 22.206 90.3912L18.8053 90.3549C18.8082 90.0788 18.5868 89.8526 18.3106 89.8497L13.91 89.8028C13.6339 89.7998 13.4076 90.0213 13.4047 90.2974L10.004 90.2612C10.0069 89.9851 9.78546 89.7589 9.50933 89.7559L7.309 89.7325C6.31358 89.7219 5.40149 89.57 4.60035 89.3147C4.34201 89.2324 4.06617 89.371 3.9769 89.6251C2.19631 88.9368 0.981985 87.7378 0.652338 86.4156C0.906513 86.3742 1.09056 86.1439 1.06982 85.8826C1.01335 85.1711 1.26653 84.4014 1.97774 83.6577L3.38561 82.1856C3.57646 81.986 3.5694 81.6695 3.36982 81.4786L5.49441 79.257C5.69398 79.4478 6.01048 79.4408 6.20134 79.2412L9.01707 76.2969C9.20792 76.0973 9.20085 75.7808 9.00128 75.5899L11.1259 73.3683C11.3254 73.5591 11.6419 73.5521 11.8328 73.3525L14.6485 70.4082C14.8394 70.2086 14.8323 69.8921 14.6327 69.7012L16.7573 67.4796C16.9569 67.6704 17.2734 67.6634 17.4643 67.4638L20.28 64.5194C20.4708 64.3199 20.4638 64.0034 20.2642 63.8125L22.3888 61.5909C22.5884 61.7817 22.9049 61.7747 23.0957 61.5751L25.9114 58.6307C26.1023 58.4312 26.0952 58.1147 25.8957 57.9238L28.0202 55.7022C28.2198 55.893 28.5363 55.886 28.7272 55.6864L31.5429 52.742C31.7338 52.5425 31.7267 52.226 31.5271 52.0351L33.6517 49.8135C33.8513 50.0043 34.1678 49.9973 34.3586 49.7977L35.7665 48.3255C36.1271 47.9484 36.4097 47.5397 36.6082 47.1093C36.7239 46.8586 36.6144 46.5615 36.3637 46.4459C36.3522 46.4406 36.3407 46.4358 36.3291 46.4314C36.4825 45.898 36.4884 45.3493 36.3463 44.8128C36.358 44.8087 36.3696 44.8041 36.3812 44.7991C36.6343 44.6888 36.7502 44.3941 36.6398 44.141C36.4505 43.7064 36.1767 43.2918 35.8242 42.9071L34.448 41.4053C34.2614 41.2017 33.9452 41.1879 33.7416 41.3745L31.6648 39.1081C31.8684 38.9215 31.8822 38.6052 31.6956 38.4017L28.9432 35.398C28.7567 35.1944 28.4404 35.1806 28.2368 35.3672L26.16 33.1008C26.3636 32.9142 26.3774 32.5979 26.1909 32.3943L23.4385 29.3907C23.2519 29.1871 22.9356 29.1733 22.732 29.3599L20.6552 27.0935C20.8588 26.9069 20.8726 26.5906 20.6861 26.387L17.9337 23.3834C17.7471 23.1798 17.4309 23.166 17.2273 23.3526L15.1505 21.0862C15.3541 20.8996 15.3679 20.5833 15.1813 20.3797L12.4289 17.3761C12.2424 17.1725 11.9261 17.1587 11.7225 17.3453L9.64571 15.0789C9.8493 14.8923 9.86311 14.576 9.67654 14.3724L6.92416 11.3688C6.7376 11.1652 6.42132 11.1514 6.21773 11.3379L4.14094 9.07157C4.34453 8.88501 4.35833 8.56872 4.17177 8.36513L2.79558 6.86331C2.10037 6.10464 1.86364 5.32974 1.93525 4.61962C1.96155 4.35882 1.78244 4.12466 1.52921 4.07785C1.88694 2.76298 3.12651 1.59013 4.92136 0.939872C5.0052 1.19584 5.27802 1.34029 5.53806 1.26349C6.34446 1.02533 7.25957 0.892877 8.255 0.903478L10.4553 0.926911C10.7314 0.929852 10.9577 0.708394 10.9606 0.432264L14.3613 0.468481C14.3584 0.744611 14.5798 0.970836 14.856 0.973777L19.2566 1.02064C19.5328 1.02358 19.759 0.802126 19.7619 0.525995L23.1626 0.562212C23.1597 0.838342 23.3812 1.06457 23.6573 1.06751L28.0579 1.11437C28.3341 1.11731 28.5603 0.895857 28.5632 0.619727L31.9639 0.655943C31.961 0.932074 32.1825 1.1583 32.4586 1.16124L36.8592 1.20811C37.1354 1.21105 37.3616 0.989588 37.3645 0.713458L40.7652 0.749675C40.7623 1.0258 40.9838 1.25203 41.2599 1.25497L43.4602 1.2784C43.9692 1.28382 44.4689 1.32892 44.9506 1.41015C45.2186 1.45535 45.4727 1.27825 45.5244 1.01299C46.2544 1.17557 46.9381 1.41889 47.5459 1.73171C47.4149 1.9653 47.4914 2.26258 47.7219 2.4031C48.1562 2.66773 48.5309 2.97009 48.8346 3.30153L50.1707 4.7596C50.3573 4.96319 50.6736 4.977 50.8772 4.79043L52.8738 6.9693C52.6702 7.15587 52.6564 7.47215 52.8429 7.67574L55.5151 10.5919C55.7017 10.7955 56.018 10.8093 56.2215 10.6227L58.2182 12.8016C58.0146 12.9882 58.0008 13.3044 58.1873 13.508L60.8595 16.4242C61.0461 16.6278 61.3624 16.6416 61.5659 16.455L63.5625 18.6339C63.359 18.8204 63.3452 19.1367 63.5317 19.3403L66.2039 22.2565C66.3905 22.4601 66.7068 22.4739 66.9103 22.2873L68.9069 24.4662C68.7034 24.6527 68.6895 24.969 68.8761 25.1726L71.5483 28.0888C71.7349 28.2923 72.0512 28.3062 72.2547 28.1196L74.2513 30.2985C74.0478 30.485 74.0339 30.8013 74.2205 31.0049L76.8927 33.921C77.0793 34.1246 77.3956 34.1384 77.5991 33.9519L79.5957 36.1308C79.3922 36.3173 79.3783 36.6336 79.5649 36.8372L82.2371 39.7533C82.4237 39.9569 82.7399 39.9707 82.9435 39.7842L84.9401 41.963C84.7365 42.1496 84.7227 42.4659 84.9093 42.6695L86.2454 44.1276C86.5304 44.4385 86.7404 44.7613 86.8816 45.0852C86.9868 45.3268 87.26 45.4433 87.5048 45.3576C87.6469 45.8941 87.641 46.4429 87.4875 46.9762C87.2447 46.8853 86.9691 46.9959 86.8587 47.2353C86.7106 47.5561 86.4938 47.8744 86.2022 48.1792L84.8354 49.6085C84.6445 49.808 84.6516 50.1245 84.8512 50.3154L82.8086 52.4513C82.6091 52.2604 82.2926 52.2675 82.1017 52.467L79.368 55.3256C79.1771 55.5252 79.1842 55.8417 79.3838 56.0325L77.3412 58.1684C77.1417 57.9776 76.8252 57.9846 76.6343 58.1842L73.9006 61.0428C73.7098 61.2423 73.7168 61.5588 73.9164 61.7497L71.8738 63.8856C71.6743 63.6947 71.3578 63.7018 71.1669 63.9013L68.4332 66.7599C68.2424 66.9595 68.2494 67.276 68.449 67.4668L66.4064 69.6027C66.2069 69.4118 65.8904 69.4189 65.6995 69.6185L62.9658 72.4771C62.775 72.6766 62.782 72.9931 62.9816 73.184L60.9391 75.3198C60.7395 75.129 60.423 75.1361 60.2321 75.3356L57.4984 78.1942C57.3076 78.3938 57.3146 78.7103 57.5142 78.9011L55.4717 81.037C55.2721 80.8461 54.9556 80.8532 54.7647 81.0528L52.031 83.9114C51.8402 84.1109 51.8472 84.4274 52.0468 84.6183L50.0043 86.7541C49.8047 86.5633 49.4882 86.5704 49.2973 86.7699L47.9305 88.1992C47.6198 88.5241 47.2387 88.8184 46.7989 89.0737Z" stroke="white" stroke-linecap="round" stroke-dasharray="4 4"/>
</svg>
