<svg width="331" height="25" viewBox="0 0 331 25" fill="none" xmlns="http://www.w3.org/2000/svg">
<path fill-rule="evenodd" clip-rule="evenodd" d="M0.852493 21.4135C-0.284164 22.234 -0.284164 23.5642 0.852493 24.3847C1.98915 25.2051 3.83204 25.2051 4.96869 24.3847L33.7821 3.58651C34.9187 2.76605 34.9187 1.43581 33.7821 0.615348C32.6454 -0.205116 30.8025 -0.205116 29.6659 0.615348L0.852493 21.4135ZM33.782 21.4135C32.6453 22.234 32.6453 23.5642 33.782 24.3847C34.9186 25.2051 36.7615 25.2051 37.8982 24.3847L66.7116 3.58651C67.8482 2.76605 67.8482 1.43581 66.7116 0.615348C65.5749 -0.205116 63.732 -0.205116 62.5954 0.615348L33.782 21.4135ZM66.7115 24.3847C65.5748 23.5642 65.5748 22.234 66.7115 21.4135L95.5249 0.615348C96.6615 -0.205116 98.5044 -0.205116 99.6411 0.615348C100.778 1.43581 100.778 2.76605 99.6411 3.58651L70.8277 24.3847C69.691 25.2051 67.8481 25.2051 66.7115 24.3847ZM99.641 21.4135C98.5043 22.234 98.5043 23.5642 99.641 24.3847C100.778 25.2051 102.621 25.2051 103.757 24.3847L132.571 3.58651C133.707 2.76605 133.707 1.43581 132.571 0.615348C131.434 -0.205116 129.591 -0.205116 128.454 0.615348L99.641 21.4135ZM132.57 24.3847C131.434 23.5642 131.434 22.234 132.57 21.4135L161.384 0.615348C162.52 -0.205116 164.363 -0.205116 165.5 0.615348C166.637 1.43581 166.637 2.76605 165.5 3.58651L136.687 24.3847C135.55 25.2051 133.707 25.2051 132.57 24.3847ZM165.5 21.4135C164.363 22.234 164.363 23.5642 165.5 24.3847C166.637 25.2051 168.479 25.2051 169.616 24.3847L198.43 3.58651C199.566 2.76605 199.566 1.43581 198.43 0.615348C197.293 -0.205116 195.45 -0.205116 194.313 0.615348L165.5 21.4135ZM198.429 24.3847C197.293 23.5642 197.293 22.234 198.429 21.4135L227.243 0.615348C228.379 -0.205116 230.222 -0.205116 231.359 0.615348C232.496 1.43581 232.496 2.76605 231.359 3.58651L202.546 24.3847C201.409 25.2051 199.566 25.2051 198.429 24.3847ZM231.359 21.4135C230.222 22.234 230.222 23.5642 231.359 24.3847C232.496 25.2051 234.338 25.2051 235.475 24.3847L264.289 3.58651C265.425 2.76605 265.425 1.43581 264.289 0.615348C263.152 -0.205116 261.309 -0.205116 260.172 0.615348L231.359 21.4135ZM264.288 24.3847C263.152 23.5642 263.152 22.234 264.288 21.4135L293.102 0.615348C294.238 -0.205116 296.081 -0.205116 297.218 0.615348C298.355 1.43581 298.355 2.76605 297.218 3.58651L268.405 24.3847C267.268 25.2051 265.425 25.2051 264.288 24.3847ZM297.218 21.4135C296.081 22.234 296.081 23.5642 297.218 24.3847C298.355 25.2051 300.197 25.2051 301.334 24.3847L330.147 3.58651C331.284 2.76605 331.284 1.43581 330.147 0.615348C329.011 -0.205116 327.168 -0.205116 326.031 0.615348L297.218 21.4135Z" fill="white"/>
</svg>
