<svg width="316" height="69" viewBox="0 0 316 69" fill="none" xmlns="http://www.w3.org/2000/svg">
<path fill-rule="evenodd" clip-rule="evenodd" d="M259.432 63.5119C256.507 61.9208 256.383 59.2314 259.155 57.5048L299.598 32.3208L258.546 8.14332C255.731 6.48578 255.789 3.79406 258.674 2.13121C261.559 0.468361 266.18 0.464058 268.994 2.12161L312.496 27.742C316.601 30.1597 316.649 34.0614 312.605 36.5797L269.749 63.2667C266.976 64.9932 262.357 65.103 259.432 63.5119ZM195.577 64.3006C192.652 62.7095 192.528 60.02 195.301 58.2935L235.743 33.1095L194.691 8.93196C191.877 7.27442 191.934 4.5827 194.819 2.91985C197.704 1.257 202.325 1.2527 205.139 2.91025L248.641 28.5307C252.746 30.9483 252.794 34.85 248.75 37.3683L205.894 64.0553C203.122 65.7818 198.502 65.8917 195.577 64.3006ZM131.446 59.0821C128.673 60.8086 128.797 63.4981 131.722 65.0892C134.648 66.6803 139.267 66.5705 142.039 64.8439L184.895 38.157C188.939 35.6387 188.891 31.737 184.786 29.3193L141.284 3.69888C138.47 2.04133 133.849 2.04564 130.964 3.70849C128.079 5.37134 128.022 8.06305 130.836 9.7206L171.888 33.8981L131.446 59.0821ZM67.8673 65.8778C64.9419 64.2868 64.8181 61.5973 67.5907 59.8707L108.033 34.6867L66.9811 10.5092C64.1667 8.85169 64.224 6.15997 67.1092 4.49713C69.9943 2.83427 74.6147 2.82997 77.4292 4.48752L120.931 30.1079C125.036 32.5256 125.084 36.4273 121.04 38.9456L78.1843 65.6326C75.4117 67.3591 70.7926 67.4689 67.8673 65.8778ZM3.7358 60.6594C0.963176 62.3859 1.08698 65.0754 4.01233 66.6665C6.93769 68.2576 11.5568 68.1478 14.3294 66.4212L57.1853 39.7342C61.2293 37.2159 61.1812 33.3142 57.0761 30.8966L13.5742 5.27616C10.7598 3.61861 6.13943 3.62291 3.25425 5.28576C0.369083 6.94861 0.311744 9.64033 3.12616 11.2979L44.1781 35.4754L3.7358 60.6594Z" fill="url(#paint0_linear_19_4)" stroke="black" stroke-width="0.5" stroke-linecap="round"/>
<defs>
<linearGradient id="paint0_linear_19_4" x1="316" y1="34" x2="0.999996" y2="44" gradientUnits="userSpaceOnUse">
<stop stop-color="#94DF98"/>
<stop offset="0.268603" stop-color="#5B7B5C" stop-opacity="0.892966"/>
<stop offset="0.656554" stop-color="#485B49" stop-opacity="0.858959"/>
<stop offset="1" stop-color="#3E493F" stop-opacity="0.84"/>
</linearGradient>
</defs>
</svg>
