<svg width="211" height="224" viewBox="0 0 211 224" fill="none" xmlns="http://www.w3.org/2000/svg">
<path fill-rule="evenodd" clip-rule="evenodd" d="M1.64844 3.5C2.55884 3.5 3.29688 2.7165 3.29688 1.75C3.29688 0.783502 2.55884 0 1.64844 0C0.738031 0 0 0.783502 0 1.75C0 2.7165 0.738031 3.5 1.64844 3.5ZM1.64844 150.5C2.55884 150.5 3.29688 149.716 3.29688 148.75C3.29688 147.784 2.55884 147 1.64844 147C0.738031 147 0 147.784 0 148.75C0 149.716 0.738031 150.5 1.64844 150.5ZM141.766 1.75C141.766 2.7165 141.028 3.5 140.117 3.5C139.207 3.5 138.469 2.7165 138.469 1.75C138.469 0.783502 139.207 0 140.117 0C141.028 0 141.766 0.783502 141.766 1.75ZM140.117 150.5C141.028 150.5 141.766 149.716 141.766 148.75C141.766 147.784 141.028 147 140.117 147C139.207 147 138.469 147.784 138.469 148.75C138.469 149.716 139.207 150.5 140.117 150.5ZM3.29688 75.25C3.29688 76.2165 2.55884 77 1.64844 77C0.738031 77 0 76.2165 0 75.25C0 74.2835 0.738031 73.5 1.64844 73.5C2.55884 73.5 3.29688 74.2835 3.29688 75.25ZM1.64844 224C2.55884 224 3.29688 223.216 3.29688 222.25C3.29688 221.284 2.55884 220.5 1.64844 220.5C0.738031 220.5 0 221.284 0 222.25C0 223.216 0.738031 224 1.64844 224ZM141.766 75.25C141.766 76.2165 141.028 77 140.117 77C139.207 77 138.469 76.2165 138.469 75.25C138.469 74.2835 139.207 73.5 140.117 73.5C141.028 73.5 141.766 74.2835 141.766 75.25ZM140.117 224C141.028 224 141.766 223.216 141.766 222.25C141.766 221.284 141.028 220.5 140.117 220.5C139.207 220.5 138.469 221.284 138.469 222.25C138.469 223.216 139.207 224 140.117 224ZM72.5312 1.75C72.5312 2.7165 71.7932 3.5 70.8828 3.5C69.9724 3.5 69.2344 2.7165 69.2344 1.75C69.2344 0.783502 69.9724 0 70.8828 0C71.7932 0 72.5312 0.783502 72.5312 1.75ZM70.8828 150.5C71.7932 150.5 72.5312 149.716 72.5312 148.75C72.5312 147.784 71.7932 147 70.8828 147C69.9724 147 69.2344 147.784 69.2344 148.75C69.2344 149.716 69.9724 150.5 70.8828 150.5ZM211 1.75C211 2.7165 210.262 3.5 209.352 3.5C208.441 3.5 207.703 2.7165 207.703 1.75C207.703 0.783502 208.441 0 209.352 0C210.262 0 211 0.783502 211 1.75ZM209.352 150.5C210.262 150.5 211 149.716 211 148.75C211 147.784 210.262 147 209.352 147C208.441 147 207.703 147.784 207.703 148.75C207.703 149.716 208.441 150.5 209.352 150.5ZM72.5312 75.25C72.5312 76.2165 71.7932 77 70.8828 77C69.9724 77 69.2344 76.2165 69.2344 75.25C69.2344 74.2835 69.9724 73.5 70.8828 73.5C71.7932 73.5 72.5312 74.2835 72.5312 75.25ZM70.8828 224C71.7932 224 72.5312 223.216 72.5312 222.25C72.5312 221.284 71.7932 220.5 70.8828 220.5C69.9724 220.5 69.2344 221.284 69.2344 222.25C69.2344 223.216 69.9724 224 70.8828 224ZM211 75.25C211 76.2165 210.262 77 209.352 77C208.441 77 207.703 76.2165 207.703 75.25C207.703 74.2835 208.441 73.5 209.352 73.5C210.262 73.5 211 74.2835 211 75.25ZM209.352 224C210.262 224 211 223.216 211 222.25C211 221.284 210.262 220.5 209.352 220.5C208.441 220.5 207.703 221.284 207.703 222.25C207.703 223.216 208.441 224 209.352 224Z" fill="white"/>
</svg>
