<svg width="240" height="92" viewBox="0 0 240 92" fill="none" xmlns="http://www.w3.org/2000/svg">
<path d="M198.801 90.3667C198.567 90.5023 198.484 90.7979 198.61 91.0342C197.996 91.334 197.307 91.5627 196.574 91.7097C196.528 91.4434 196.278 91.2609 196.009 91.3004C195.526 91.3713 195.025 91.4058 194.516 91.4004L192.316 91.3769C192.04 91.374 191.813 91.5955 191.81 91.8716L188.41 91.8354C188.413 91.5592 188.191 91.333 187.915 91.3301L183.514 91.2832C183.238 91.2803 183.012 91.5017 183.009 91.7779L179.608 91.7416C179.611 91.4655 179.39 91.2393 179.114 91.2363L174.713 91.1895C174.437 91.1865 174.211 91.408 174.208 91.6841L170.807 91.6479C170.81 91.3718 170.589 91.1455 170.312 91.1426L165.912 91.0957C165.636 91.0928 165.409 91.3143 165.406 91.5904L162.006 91.5542C162.009 91.278 161.787 91.0518 161.511 91.0489L159.311 91.0254C158.315 91.0148 157.403 90.8629 156.602 90.6076C156.344 90.5253 156.068 90.6639 155.979 90.9181C154.198 90.2297 152.984 89.0308 152.654 87.7086C152.908 87.6672 153.092 87.4369 153.072 87.1756C153.015 86.4641 153.268 85.6944 153.98 84.9507L155.387 83.4785C155.578 83.2789 155.571 82.9624 155.372 82.7716L157.496 80.5499C157.696 80.7408 158.012 80.7337 158.203 80.5342L161.019 77.5898C161.21 77.3902 161.203 77.0737 161.003 76.8829L163.128 74.6612C163.327 74.8521 163.644 74.845 163.835 74.6455L166.65 71.7011C166.841 71.5015 166.834 71.185 166.635 70.9942L168.759 68.7725C168.959 68.9634 169.275 68.9563 169.466 68.7568L172.282 65.8124C172.473 65.6128 172.466 65.2963 172.266 65.1055L174.391 62.8838C174.59 63.0747 174.907 63.0676 175.097 62.868L177.913 59.9237C178.104 59.7241 178.097 59.4076 177.897 59.2168L180.022 56.9951C180.222 57.186 180.538 57.1789 180.729 56.9793L183.545 54.035C183.736 53.8354 183.728 53.5189 183.529 53.3281L185.653 51.1064C185.853 51.2973 186.17 51.2902 186.36 51.0906L187.768 49.6185C188.129 49.2414 188.411 48.8327 188.61 48.4023C188.726 48.1515 188.616 47.8545 188.365 47.7388C188.354 47.7335 188.342 47.7287 188.331 47.7244C188.484 47.191 188.49 46.6423 188.348 46.1057C188.36 46.1016 188.371 46.0971 188.383 46.092C188.636 45.9817 188.752 45.6871 188.642 45.4339C188.452 44.9994 188.178 44.5848 187.826 44.2001L186.45 42.6983C186.263 42.4947 185.947 42.4809 185.743 42.6674L183.667 40.401C183.87 40.2145 183.884 39.8982 183.697 39.6946L180.945 36.691C180.758 36.4874 180.442 36.4736 180.239 36.6601L178.162 34.3937C178.365 34.2072 178.379 33.8909 178.193 33.6873L175.44 30.6837C175.254 30.4801 174.937 30.4663 174.734 30.6528L172.657 28.3864C172.861 28.1999 172.874 27.8836 172.688 27.68L169.935 24.6763C169.749 24.4728 169.433 24.459 169.229 24.6455L167.152 22.3791C167.356 22.1926 167.37 21.8763 167.183 21.6727L164.431 18.669C164.244 18.4655 163.928 18.4517 163.724 18.6382L161.647 16.3718C161.851 16.1853 161.865 15.869 161.678 15.6654L158.926 12.6617C158.739 12.4582 158.423 12.4443 158.219 12.6309L156.143 10.3645C156.346 10.178 156.36 9.86168 156.174 9.6581L154.797 8.15626C154.102 7.39759 153.865 6.62269 153.937 5.91257C153.963 5.65177 153.784 5.41761 153.531 5.3708C153.889 4.05592 155.128 2.88308 156.923 2.23282C157.007 2.48878 157.28 2.63325 157.54 2.55644C158.346 2.31828 159.261 2.18583 160.257 2.19643L162.457 2.21986C162.733 2.22281 162.959 2.00135 162.962 1.72522L166.363 1.76143C166.36 2.03756 166.582 2.26379 166.858 2.26673L171.258 2.3136C171.535 2.31654 171.761 2.09508 171.764 1.81895L175.164 1.85517C175.161 2.1313 175.383 2.35752 175.659 2.36046L180.06 2.40733C180.336 2.41027 180.562 2.18881 180.565 1.91268L183.966 1.9489C183.963 2.22503 184.184 2.45125 184.46 2.45419L188.861 2.50106C189.137 2.504 189.363 2.28254 189.366 2.00641L192.767 2.04263C192.764 2.31876 192.986 2.54498 193.262 2.54792L195.462 2.57136C195.971 2.57678 196.471 2.62187 196.952 2.7031C197.22 2.7483 197.474 2.57121 197.526 2.30595C198.256 2.46852 198.94 2.71183 199.548 3.02466C199.417 3.25825 199.493 3.55553 199.724 3.69604C200.158 3.96069 200.533 4.26304 200.836 4.59448L202.172 6.05255C202.359 6.25614 202.675 6.26995 202.879 6.08339L204.876 8.26226C204.672 8.44882 204.658 8.76511 204.845 8.9687L207.517 11.8848C207.703 12.0884 208.02 12.1022 208.223 11.9157L210.22 14.0945C210.016 14.2811 210.003 14.5974 210.189 14.801L212.861 17.7171C213.048 17.9207 213.364 17.9345 213.568 17.748L215.564 19.9268C215.361 20.1134 215.347 20.4297 215.533 20.6333L218.206 23.5494C218.392 23.753 218.709 23.7668 218.912 23.5803L220.909 25.7591C220.705 25.9457 220.691 26.262 220.878 26.4656L223.55 29.3817C223.737 29.5853 224.053 29.5991 224.257 29.4125L226.253 31.5914C226.05 31.778 226.036 32.0943 226.222 32.2978L228.894 35.214C229.081 35.4176 229.397 35.4314 229.601 35.2448L231.598 37.4237C231.394 37.6103 231.38 37.9265 231.567 38.1301L234.239 41.0463C234.425 41.2499 234.742 41.2637 234.945 41.0771L236.942 43.256C236.738 43.4426 236.725 43.7588 236.911 43.9624L238.247 45.4205C238.532 45.7315 238.742 46.0542 238.883 46.3782C238.989 46.6198 239.262 46.7363 239.507 46.6505C239.649 47.1871 239.643 47.7358 239.489 48.2692C239.246 48.1782 238.971 48.2889 238.86 48.5282C238.712 48.8491 238.496 49.1673 238.204 49.4721L236.837 50.9014C236.646 51.101 236.653 51.4175 236.853 51.6084L234.81 53.7442C234.611 53.5534 234.294 53.5604 234.103 53.76L231.37 56.6186C231.179 56.8181 231.186 57.1346 231.386 57.3255L229.343 59.4614C229.143 59.2705 228.827 59.2776 228.636 59.4771L225.902 62.3357C225.712 62.5353 225.719 62.8518 225.918 63.0426L223.876 65.1785C223.676 64.9877 223.36 64.9947 223.169 65.1943L220.435 68.0529C220.244 68.2524 220.251 68.5689 220.451 68.7598L218.408 70.8957C218.209 70.7048 217.892 70.7119 217.701 70.9114L214.968 73.77C214.777 73.9696 214.784 74.2861 214.983 74.4769L212.941 76.6128C212.741 76.4219 212.425 76.429 212.234 76.6286L209.5 79.4872C209.309 79.6867 209.316 80.0032 209.516 80.1941L207.473 82.3299C207.274 82.1391 206.957 82.1462 206.766 82.3457L204.033 85.2043C203.842 85.4039 203.849 85.7204 204.049 85.9112L202.006 88.0471C201.806 87.8562 201.49 87.8633 201.299 88.0629L199.932 89.4922C199.622 89.8171 199.241 90.1114 198.801 90.3667ZM122.543 89.5546C122.309 89.6901 122.226 89.9857 122.352 90.2221C121.738 90.5219 121.049 90.7506 120.316 90.8976C120.27 90.6313 120.02 90.4488 119.751 90.4883C119.267 90.5592 118.767 90.5937 118.258 90.5882L116.058 90.5648C115.781 90.5619 115.555 90.7833 115.552 91.0595L112.152 91.0232C112.155 90.7471 111.933 90.5209 111.657 90.5179L107.256 90.4711C106.98 90.4681 106.754 90.6896 106.751 90.9657L103.35 90.9295C103.353 90.6534 103.132 90.4272 102.856 90.4242L98.455 90.3773C98.1788 90.3744 97.9526 90.5959 97.9497 90.872L94.549 90.8358C94.5519 90.5596 94.3304 90.3334 94.0543 90.3305L89.6537 90.2836C89.3775 90.2807 89.1513 90.5021 89.1484 90.7783L85.7477 90.742C85.7506 90.4659 85.5291 90.2397 85.253 90.2367L83.0527 90.2133C82.0573 90.2027 81.1452 90.0508 80.344 89.7955C80.0857 89.7132 79.8099 89.8518 79.7206 90.1059C77.94 89.4176 76.7257 88.2186 76.396 86.8964C76.6502 86.855 76.8342 86.6247 76.8135 86.3634C76.757 85.6519 77.0102 84.8823 77.7214 84.1386L79.1293 82.6664C79.3201 82.4668 79.3131 82.1503 79.1135 81.9595L81.2381 79.7378C81.4377 79.9287 81.7542 79.9216 81.945 79.722L84.7607 76.7777C84.9516 76.5781 84.9445 76.2616 84.745 76.0708L86.8696 73.8491C87.0691 74.04 87.3856 74.0329 87.5765 73.8333L90.3922 70.889C90.5831 70.6894 90.576 70.3729 90.3764 70.182L92.501 67.9604C92.7006 68.1513 93.0171 68.1442 93.2079 67.9446L96.0237 65.0003C96.2145 64.8007 96.2075 64.4842 96.0079 64.2933L98.1325 62.0717C98.332 62.2626 98.6485 62.2555 98.8394 62.0559L101.655 59.1116C101.846 58.912 101.839 58.5955 101.639 58.4046L103.764 56.183C103.964 56.3739 104.28 56.3668 104.471 56.1672L107.287 53.2229C107.477 53.0233 107.47 52.7068 107.271 52.5159L109.395 50.2943C109.595 50.4851 109.911 50.4781 110.102 50.2785L111.51 48.8063C111.871 48.4293 112.153 48.0206 112.352 47.5901C112.468 47.3394 112.358 47.0424 112.107 46.9267C112.096 46.9214 112.084 46.9166 112.073 46.9123C112.226 46.3789 112.232 45.8301 112.09 45.2936C112.102 45.2895 112.113 45.2849 112.125 45.2799C112.378 45.1696 112.494 44.875 112.384 44.6218C112.194 44.1872 111.92 43.7726 111.568 43.388L110.192 41.8861C110.005 41.6825 109.689 41.6687 109.485 41.8553L107.408 39.5889C107.612 39.4024 107.626 39.0861 107.439 38.8825L104.687 35.8788C104.5 35.6752 104.184 35.6614 103.98 35.848L101.904 33.5816C102.107 33.3951 102.121 33.0788 101.935 32.8752L99.1822 29.8715C98.9956 29.6679 98.6793 29.6541 98.4757 29.8407L96.3989 27.5743C96.6025 27.3877 96.6163 27.0715 96.4298 26.8679L93.6774 23.8642C93.4908 23.6606 93.1745 23.6468 92.971 23.8334L90.8942 21.567C91.0978 21.3804 91.1116 21.0642 90.925 20.8606L88.1726 17.8569C87.9861 17.6533 87.6698 17.6395 87.4662 17.8261L85.3894 15.5597C85.593 15.3731 85.6068 15.0569 85.4202 14.8533L82.6678 11.8496C82.4813 11.646 82.165 11.6322 81.9614 11.8188L79.8846 9.5524C80.0882 9.36584 80.102 9.04956 79.9155 8.84596L78.5393 7.34414C77.8441 6.58546 77.6073 5.81057 77.6789 5.10044C77.7052 4.83965 77.5261 4.60549 77.2729 4.55867C77.6306 3.2438 78.8702 2.07095 80.665 1.42069C80.7489 1.67666 81.0217 1.82112 81.2817 1.74432C82.0881 1.50616 83.0032 1.3737 83.9987 1.38431L86.199 1.40774C86.4751 1.41068 86.7014 1.18922 86.7043 0.913091L90.105 0.949308C90.1021 1.22544 90.3235 1.45166 90.5996 1.4546L95.0003 1.50147C95.2764 1.50441 95.5027 1.28295 95.5056 1.00682L98.9063 1.04304C98.9034 1.31917 99.1248 1.54539 99.401 1.54834L103.802 1.5952C104.078 1.59814 104.304 1.37668 104.307 1.10055L107.708 1.13677C107.705 1.4129 107.926 1.63913 108.202 1.64207L112.603 1.68893C112.879 1.69187 113.105 1.47042 113.108 1.19429L116.509 1.2305C116.506 1.50663 116.727 1.73286 117.004 1.7358L119.204 1.75923C119.713 1.76465 120.213 1.80975 120.694 1.89098C120.962 1.93618 121.216 1.75908 121.268 1.49382C121.998 1.6564 122.682 1.89971 123.29 2.21254C123.159 2.44612 123.235 2.74341 123.466 2.88392C123.9 3.14856 124.275 3.45091 124.578 3.78235L125.914 5.24043C126.101 5.44402 126.417 5.45782 126.621 5.27126L128.617 7.45013C128.414 7.63669 128.4 7.95298 128.587 8.15657L131.259 11.0727C131.445 11.2763 131.762 11.2901 131.965 11.1036L133.962 13.2824C133.758 13.469 133.744 13.7853 133.931 13.9889L136.603 16.905C136.79 17.1086 137.106 17.1224 137.31 16.9358L139.306 19.1147C139.103 19.3013 139.089 19.6176 139.275 19.8212L141.948 22.7373C142.134 22.9409 142.45 22.9547 142.654 22.7681L144.651 24.947C144.447 25.1336 144.433 25.4498 144.62 25.6534L147.292 28.5696C147.479 28.7732 147.795 28.787 147.998 28.6004L149.995 30.7793C149.791 30.9659 149.778 31.2821 149.964 31.4857L152.636 34.4019C152.823 34.6055 153.139 34.6193 153.343 34.4327L155.339 36.6116C155.136 36.7981 155.122 37.1144 155.309 37.318L157.981 40.2342C158.167 40.4378 158.484 40.4516 158.687 40.265L160.684 42.4439C160.48 42.6304 160.466 42.9467 160.653 43.1503L161.989 44.6084C162.274 44.9193 162.484 45.2421 162.625 45.5661C162.731 45.8077 163.004 45.9242 163.248 45.8384C163.391 46.3749 163.385 46.9237 163.231 47.4571C162.988 47.3661 162.713 47.4768 162.602 47.7161C162.454 48.037 162.237 48.3552 161.946 48.66L160.579 50.0893C160.388 50.2889 160.395 50.6054 160.595 50.7962L158.552 52.9321C158.353 52.7412 158.036 52.7483 157.845 52.9479L155.112 55.8064C154.921 56.006 154.928 56.3225 155.127 56.5134L153.085 58.6492C152.885 58.4584 152.569 58.4654 152.378 58.665L149.644 61.5236C149.453 61.7232 149.46 62.0397 149.66 62.2305L147.618 64.3664C147.418 64.1755 147.101 64.1826 146.911 64.3822L144.177 67.2407C143.986 67.4403 143.993 67.7568 144.193 67.9477L142.15 70.0835C141.951 69.8927 141.634 69.8997 141.443 70.0993L138.71 72.9579C138.519 73.1575 138.526 73.474 138.725 73.6648L136.683 75.8007C136.483 75.6098 136.167 75.6169 135.976 75.8165L133.242 78.675C133.051 78.8746 133.058 79.1911 133.258 79.382L131.215 81.5178C131.016 81.327 130.699 81.334 130.508 81.5336L127.775 84.3922C127.584 84.5918 127.591 84.9083 127.79 85.0991L125.748 87.235C125.548 87.0441 125.232 87.0512 125.041 87.2508L123.674 88.68C123.363 89.0049 122.982 89.2992 122.543 89.5546ZM46.2845 88.7424C46.051 88.878 45.9682 89.1736 46.0943 89.4099C45.4799 89.7097 44.7912 89.9384 44.0579 90.0854C44.0119 89.8191 43.7616 89.6367 43.4926 89.6761C43.0094 89.7471 42.5088 89.7815 41.9998 89.7761L39.7995 89.7527C39.5234 89.7497 39.2971 89.9712 39.2942 90.2473L35.8935 90.2111C35.8964 89.935 35.675 89.7088 35.3988 89.7058L30.9982 89.6589C30.7221 89.656 30.4958 89.8775 30.4929 90.1536L27.0922 90.1174C27.0951 89.8413 26.8737 89.615 26.5975 89.6121L22.1969 89.5652C21.9208 89.5623 21.6945 89.7837 21.6916 90.0599L18.2909 90.0236C18.2938 89.7475 18.0724 89.5213 17.7962 89.5184L13.3956 89.4715C13.1195 89.4685 12.8932 89.69 12.8903 89.9661L9.48957 89.9299C9.49251 89.6538 9.27105 89.4276 8.99493 89.4246L6.7946 89.4012C5.79917 89.3906 4.88709 89.2387 4.08595 88.9834C3.8276 88.9011 3.55176 89.0397 3.46249 89.2938C1.6819 88.6055 0.46758 87.4065 0.137934 86.0843C0.392109 86.0429 0.576158 85.8126 0.555418 85.5513C0.498944 84.8398 0.752125 84.0701 1.46334 83.3264L2.8712 81.8543C3.06206 81.6547 3.05499 81.3382 2.85542 81.1473L4.98 78.9257C5.17958 79.1165 5.49608 79.1095 5.68693 78.9099L8.50266 75.9656C8.69352 75.766 8.68645 75.4495 8.48688 75.2586L10.6115 73.037C10.811 73.2278 11.1275 73.2208 11.3184 73.0212L14.1341 70.0769C14.325 69.8773 14.3179 69.5608 14.1183 69.3699L16.2429 67.1483C16.4425 67.3391 16.759 67.3321 16.9499 67.1325L19.7656 64.1881C19.9564 63.9886 19.9494 63.6721 19.7498 63.4812L21.8744 61.2596C22.074 61.4504 22.3905 61.4434 22.5813 61.2438L25.397 58.2994C25.5879 58.0999 25.5808 57.7834 25.3813 57.5925L27.5058 55.3709C27.7054 55.5617 28.0219 55.5547 28.2128 55.3551L31.0285 52.4107C31.2194 52.2112 31.2123 51.8947 31.0127 51.7038L33.1373 49.4822C33.3369 49.673 33.6534 49.666 33.8442 49.4664L35.2521 47.9942C35.6127 47.6171 35.8953 47.2084 36.0938 46.778C36.2095 46.5273 36.1 46.2302 35.8493 46.1146C35.8378 46.1093 35.8263 46.1045 35.8147 46.1001C35.9681 45.5667 35.974 45.018 35.8319 44.4815C35.8436 44.4774 35.8552 44.4728 35.8668 44.4678C36.1199 44.3575 36.2357 44.0628 36.1254 43.8097C35.9361 43.3751 35.6623 42.9605 35.3098 42.5758L33.9336 41.074C33.747 40.8704 33.4308 40.8566 33.2272 41.0432L31.1504 38.7768C31.354 38.5902 31.3678 38.2739 31.1812 38.0704L28.4288 35.0667C28.2423 34.8631 27.926 34.8493 27.7224 35.0359L25.6456 32.7695C25.8492 32.5829 25.863 32.2666 25.6765 32.0631L22.9241 29.0594C22.7375 28.8558 22.4212 28.842 22.2176 29.0286L20.1408 26.7622C20.3444 26.5756 20.3582 26.2593 20.1717 26.0557L17.4193 23.0521C17.2327 22.8485 16.9165 22.8347 16.7129 23.0213L14.6361 20.7549C14.8397 20.5683 14.8535 20.252 14.6669 20.0484L11.9145 17.0448C11.728 16.8412 11.4117 16.8274 11.2081 17.014L9.1313 14.7476C9.33489 14.561 9.3487 14.2447 9.16214 14.0411L6.40976 11.0375C6.2232 10.8339 5.90691 10.8201 5.70332 11.0067L3.62653 8.74027C3.83012 8.55371 3.84393 8.23742 3.65737 8.03384L2.28118 6.53201C1.58596 5.77334 1.34923 4.99844 1.42084 4.28832C1.44714 4.02752 1.26804 3.79336 1.0148 3.74655C1.37253 2.43168 2.61211 1.25883 4.40695 0.608573C4.49079 0.864539 4.76362 1.00899 5.02366 0.932191C5.83005 0.69403 6.74516 0.561578 7.74059 0.572179L9.94092 0.595612C10.217 0.598553 10.4433 0.377096 10.4462 0.100965L13.8469 0.137182C13.844 0.413312 14.0654 0.639537 14.3416 0.642478L18.7422 0.689344C19.0183 0.692284 19.2446 0.470827 19.2475 0.194697L22.6482 0.230913C22.6453 0.507043 22.8667 0.733269 23.1429 0.736209L27.5435 0.783075C27.8197 0.786016 28.0459 0.564558 28.0488 0.288428L31.4495 0.324644C31.4466 0.600775 31.6681 0.827 31.9442 0.829941L36.3448 0.876806C36.621 0.879747 36.8472 0.658289 36.8501 0.382159L40.2508 0.418376C40.2479 0.694506 40.4694 0.920731 40.7455 0.923672L42.9458 0.947105C43.4548 0.952525 43.9545 0.997622 44.4362 1.07885C44.7042 1.12405 44.9583 0.946953 45.01 0.681695C45.74 0.844271 46.4237 1.08759 47.0315 1.40041C46.9005 1.634 46.977 1.93128 47.2075 2.0718C47.6418 2.33643 48.0165 2.63879 48.3202 2.97023L49.6563 4.4283C49.8429 4.63189 50.1592 4.6457 50.3628 4.45913L52.3594 6.63801C52.1558 6.82457 52.142 7.14085 52.3285 7.34444L55.0007 10.2606C55.1873 10.4642 55.5036 10.478 55.7071 10.2914L57.7037 12.4703C57.5002 12.6569 57.4864 12.9731 57.6729 13.1767L60.3451 16.0929C60.5317 16.2965 60.848 16.3103 61.0515 16.1237L63.0481 18.3026C62.8446 18.4892 62.8307 18.8054 63.0173 19.009L65.6895 21.9252C65.8761 22.1288 66.1923 22.1426 66.3959 21.956L68.3925 24.1349C68.189 24.3214 68.1751 24.6377 68.3617 24.8413L71.0339 27.7575C71.2205 27.961 71.5367 27.9749 71.7403 27.7883L73.7369 29.9672C73.5333 30.1537 73.5195 30.47 73.7061 30.6736L76.3783 33.5897C76.5649 33.7933 76.8811 33.8071 77.0847 33.6206L79.0813 35.7995C78.8777 35.986 78.8639 36.3023 79.0505 36.5059L81.7227 39.422C81.9093 39.6256 82.2255 39.6394 82.4291 39.4529L84.4257 41.6317C84.2221 41.8183 84.2083 42.1346 84.3949 42.3382L85.731 43.7963C86.016 44.1072 86.226 44.43 86.3672 44.7539C86.4724 44.9956 86.7456 45.112 86.9904 45.0263C87.1324 45.5628 87.1266 46.1116 86.9731 46.645C86.7303 46.554 86.4546 46.6646 86.3443 46.904C86.1962 47.2248 85.9794 47.5431 85.6878 47.8479L84.321 49.2772C84.1301 49.4767 84.1372 49.7932 84.3368 49.9841L82.2942 52.12C82.0947 51.9291 81.7782 51.9362 81.5873 52.1357L78.8536 54.9943C78.6627 55.1939 78.6698 55.5104 78.8694 55.7012L76.8268 57.8371C76.6273 57.6463 76.3108 57.6533 76.1199 57.8529L73.3862 60.7115C73.1953 60.911 73.2024 61.2275 73.402 61.4184L71.3594 63.5543C71.1599 63.3634 70.8434 63.3705 70.6525 63.57L67.9188 66.4286C67.728 66.6282 67.735 66.9447 67.9346 67.1355L65.892 69.2714C65.6925 69.0805 65.376 69.0876 65.1851 69.2872L62.4514 72.1458C62.2606 72.3453 62.2676 72.6618 62.4672 72.8527L60.4246 74.9885C60.2251 74.7977 59.9086 74.8048 59.7177 75.0043L56.984 77.8629C56.7932 78.0625 56.8002 78.379 56.9998 78.5698L54.9573 80.7057C54.7577 80.5148 54.4412 80.5219 54.2503 80.7215L51.5166 83.5801C51.3258 83.7796 51.3328 84.0961 51.5324 84.287L49.4899 86.4228C49.2903 86.232 48.9738 86.2391 48.7829 86.4386L47.4161 87.8679C47.1054 88.1928 46.7243 88.4871 46.2845 88.7424Z" stroke="white" stroke-linecap="round" stroke-dasharray="4 4"/>
</svg>
